# Obj file Generated by Strata Design 3D CX(TM): http://www.strata.com
mtllib Photon, Nate 2 Pulser.mtl
v 17.945938 -16.562498 48.310520
v 37.159500 -16.562498 -216.928024
v -13.544591 -16.562498 43.884815
v 4.168831 -16.562498 46.374275
v 5.001742 -16.562498 23.996307
v -250.812408 -16.562498 96.658371
v 11.613330 -16.562498 55.101410
v 7.894311 -16.562498 37.604790
v 9.960577 -16.562498 28.547741
v -209.930649 -16.562498 0.990440
v 4.904134 -16.562498 54.560863
v 7.748383 -16.562498 39.928482
v -11.748006 -16.562498 32.541618
v -40.206600 -16.562498 296.948059
v 19.568884 -16.562498 38.063637
v 1.953133 -16.562498 34.957504
v -10.282289 -16.562498 51.043293
v 221.985474 -16.562498 180.551376
v 7.037238 -16.562498 24.373566
v -2.704994 -16.562498 39.375286
v 5.401440 -16.562498 54.482101
v 191.561401 -16.562498 -65.751122
v -7.446011 -16.562498 31.304672
v -0.219319 -16.562498 44.341976
v -5.930428 -16.562500 21.642401
v -228.977539 -16.562498 268.119629
v 21.682243 -16.562500 50.236172
v 6.150116 -16.562500 34.152176
v -7.218174 -16.562500 59.071911
v 323.289886 -16.562498 94.645157
v -0.315648 -16.562500 19.925797
v -4.198319 -16.562500 41.945488
v 19.709791 -16.562498 39.211224
v -104.551170 -16.562498 -195.905487
v -9.340961 -16.562498 52.145443
v 7.000086 -16.562498 44.869946
v 13.530827 -16.562498 31.487738
v -185.408630 -16.562498 -66.157806
v 0.280821 -16.562498 54.437412
v 7.733951 -16.562498 41.528221
v 0.629988 -16.562498 57.335995
v 257.673309 -16.562498 -10.850406
v -5.437732 -16.562498 26.120241
v -2.024640 -16.562498 43.679104
v 15.323290 -16.562500 57.681545
v 187.242340 -16.562500 -226.826569
v -17.238007 -16.562500 34.881870
v 1.077722 -16.562500 47.706688
v -17.737732 -16.562500 37.046429
v 56.229969 -16.562498 361.129425
v 21.522884 -16.562500 30.828169
v -0.561212 -16.562500 34.325939
v -24.950939 1.656250 -18.317308
v -13.784163 1.656250 -23.377472
v -1.839103 1.656249 -26.163876
v 10.420031 1.656248 -26.566374
v 22.522135 1.656248 -24.569498
v 34.002129 1.656248 -20.249989
v 44.418839 1.656247 -13.773842
v 53.371967 1.656247 -5.389934
v 60.517445 1.656247 4.579554
v 65.580673 1.656247 15.751487
v 68.367073 1.656247 27.696543
v 68.769577 1.656248 39.955677
v 66.772697 1.656248 52.057781
v 62.453186 1.656248 63.537781
v 55.977043 1.656249 73.954491
v 47.593132 1.656250 82.907623
v 37.623642 1.656250 90.053093
v 26.451715 1.656250 95.116318
v 14.506654 1.656251 97.902725
v 2.247512 1.656252 98.305222
v -9.854581 1.656252 96.308350
v -21.334566 1.656252 91.988846
v -31.751282 1.656253 85.512695
v -40.704422 1.656253 77.128784
v -47.849895 1.656253 67.159294
v -52.913124 1.656253 55.987354
v -55.699524 1.656253 44.042294
v -56.102024 1.656252 31.783180
v -54.105148 1.656252 19.681076
v -49.785641 1.656252 8.201076
v -43.309490 1.656251 -2.215643
v -34.925579 1.656250 -11.168777
v -42.574631 -44.718750 -47.294819
v -58.006691 -44.718750 -36.237350
v -70.992073 -44.718750 -22.375648
v -81.023674 -44.718750 -6.246985
v -87.715965 -44.718750 11.528842
v -90.811783 -44.718750 30.268707
v -90.192139 -44.718750 49.252457
v -85.880867 -44.718750 67.750557
v -78.043625 -44.718750 85.052139
v -66.981606 -44.718750 100.492294
v -53.119911 -44.718750 113.477676
v -36.991253 -44.718750 123.509277
v -19.215416 -44.718750 130.201569
v -0.475542 -44.718750 133.297394
v 18.508196 -44.718750 132.677750
v 37.006306 -44.718750 128.366470
v 54.307884 -44.718750 120.529228
v 69.748032 -44.718750 109.467216
v 82.733429 -44.718750 95.605515
v 92.765022 -44.718750 79.476837
v 99.457314 -44.718750 61.701035
v 102.553131 -44.718750 42.961178
v 101.933495 -44.718750 23.977421
v 97.622215 -44.718750 5.479307
v 89.784966 -44.718750 -11.822268
v 78.722946 -44.718750 -27.262438
v 64.861244 -44.718750 -40.247829
v 48.732613 -44.718750 -50.279411
v 30.956785 -44.718750 -56.971706
v 12.216905 -44.718750 -60.067524
v -6.766853 -44.718750 -59.447884
v -25.264961 -44.718750 -55.136604
v 0.280825 -16.562498 26.933041
v -183.752411 -16.562498 150.396912
v 13.530824 -16.562498 49.882717
v 6.077699 -16.562498 36.973526
v -10.435318 -16.562498 44.788555
v 131.588882 -16.562498 214.908173
v 11.003638 -16.562498 29.212248
v -1.055775 -16.562498 37.973919
v -91.019936 -100.083336 -131.204575
v -121.884056 -100.083336 -109.089630
v -147.854828 -100.083336 -81.366226
v -167.918015 -100.083336 -49.108902
v -181.302612 -100.083336 -13.557249
v -187.494232 -100.083336 23.922482
v -186.254959 -100.083336 61.889988
v -177.632416 -100.083336 98.886185
v -161.957916 -100.083336 133.489349
v -139.833893 -100.083336 164.369659
v -112.110489 -100.083336 190.340424
v -79.853180 -100.083336 210.403625
v -44.301506 -100.083336 223.788223
v -6.821759 -100.083336 229.979843
v 31.145718 -100.083336 228.740570
v 68.141937 -100.083336 220.118011
v 102.745094 -100.083336 204.443512
v 133.625397 -100.083336 182.319504
v 159.596176 -100.083336 154.596100
v 179.659378 -100.083336 122.338745
v 193.043961 -100.083336 86.787132
v 199.235580 -100.083336 49.307419
v 197.996307 -100.083336 11.339911
v 189.373764 -100.083336 -25.656319
v 173.699265 -100.083336 -60.259476
v 151.575211 -100.083336 -91.139809
v 123.851822 -100.083336 -117.110596
v 91.594551 -100.083336 -137.173752
v 56.042896 -100.083336 -150.558350
v 18.563135 -100.083336 -156.749985
v -19.404381 -100.083336 -155.510696
v -56.400597 -100.083336 -146.888138

vt 1.000000 0.500000
vt 0.990401 0.597498
vt 0.961958 0.691297
vt 0.915761 0.777745
vt 0.853587 0.853519
vt 0.777825 0.915708
vt 0.691386 0.961921
vt 0.597592 0.990383
vt 0.500048 0.999999
vt 0.402502 0.990401
vt 0.308703 0.961958
vt 0.222255 0.915761
vt 0.146481 0.853587
vt 0.084292 0.777825
vt 0.038079 0.691386
vt 0.009617 0.597592
vt 0.000001 0.500048
vt 0.009599 0.402502
vt 0.038042 0.308703
vt 0.084239 0.222255
vt 0.146413 0.146481
vt 0.222175 0.084292
vt 0.308614 0.038079
vt 0.402408 0.009617
vt 0.499952 0.000001
vt 0.597498 0.009599
vt 0.691297 0.038042
vt 0.777745 0.084239
vt 0.853519 0.146413
vt 0.915708 0.222175
vt 0.961921 0.308614
vt 0.990383 0.402408

vn 0.000000 1.000000 -0.000000
vn 0.000000 1.000000 -0.000000
vn 0.000000 1.000000 -0.000000
vn 0.000000 1.000000 -0.000000
vn -0.000000 1.000000 0.000000
vn -0.000000 1.000000 0.000000
vn -0.000000 1.000000 0.000000
vn -0.000000 1.000000 0.000000
vn -0.000000 1.000000 0.000000
vn -0.000000 1.000000 0.000000
vn -0.000000 1.000000 0.000000
vn -0.000000 1.000000 0.000000
vn 0.000000 1.000000 -0.000000
vn 0.000000 1.000000 -0.000000
vn 0.000000 1.000000 -0.000000
vn 0.000000 1.000000 -0.000000
vn 0.000000 1.000000 -0.000000
vn 0.000000 1.000000 -0.000000
vn 0.000000 1.000000 -0.000000
vn 0.000000 1.000000 -0.000000
vn 0.000000 1.000000 -0.000000
vn 0.000000 1.000000 -0.000000
vn 0.000000 1.000000 -0.000000
vn 0.000000 1.000000 -0.000000
vn -0.000000 1.000000 0.000000
vn -0.000000 1.000000 0.000000
vn -0.000000 1.000000 0.000000
vn -0.000000 1.000000 0.000000
vn 0.000000 1.000000 -0.000000
vn 0.000000 1.000000 -0.000000
vn 0.000000 1.000000 -0.000000
vn 0.000000 1.000000 -0.000000
vn -0.000000 1.000000 0.000000
vn -0.000000 1.000000 0.000000
vn -0.000000 1.000000 0.000000
vn -0.000000 1.000000 0.000000
vn -0.000000 1.000000 0.000000
vn -0.000000 1.000000 0.000000
vn -0.000000 1.000000 0.000000
vn -0.000000 1.000000 0.000000
vn -0.000000 1.000000 0.000000
vn -0.000000 1.000000 0.000000
vn -0.000000 1.000000 0.000000
vn -0.000000 1.000000 0.000000
vn 0.000000 1.000000 -0.000000
vn 0.000000 1.000000 -0.000000
vn 0.000000 1.000000 -0.000000
vn 0.000000 1.000000 -0.000000
vn 0.000000 1.000000 -0.000000
vn 0.000000 1.000000 -0.000000
vn 0.000000 1.000000 -0.000000
vn 0.000000 1.000000 -0.000000
vn -0.000000 -1.000000 0.000000
vn -0.000000 -1.000000 0.000000
vn -0.000000 -1.000000 0.000000
vn -0.000000 -1.000000 0.000000
vn -0.000000 -1.000000 0.000000
vn -0.000000 -1.000000 0.000000
vn -0.000000 -1.000000 0.000000
vn -0.000000 -1.000000 0.000000
vn -0.000000 -1.000000 0.000000
vn -0.000000 -1.000000 0.000000
vn -0.000000 -1.000000 0.000000
vn -0.000000 -1.000000 0.000000
vn -0.000000 -1.000000 0.000000
vn -0.000000 -1.000000 0.000000
vn -0.000000 -1.000000 0.000000
vn -0.000000 -1.000000 0.000000
vn -0.000000 -1.000000 0.000000
vn -0.000000 -1.000000 0.000000
vn -0.000000 -1.000000 0.000000
vn -0.000000 -1.000000 0.000000
vn -0.000000 -1.000000 0.000000
vn -0.000000 -1.000000 0.000000
vn -0.000000 -1.000000 0.000000
vn -0.000000 -1.000000 0.000000
vn -0.000000 -1.000000 0.000000
vn -0.000000 -1.000000 0.000000
vn -0.000000 -1.000000 0.000000
vn -0.000000 -1.000000 0.000000
vn -0.000000 -1.000000 0.000000
vn -0.000000 -1.000000 0.000000
vn -0.000000 -1.000000 0.000000
vn -0.000000 -1.000000 0.000000
vn 0.000000 1.000000 -0.000000
vn 0.000000 1.000000 -0.000000
vn 0.000000 1.000000 -0.000000
vn 0.000000 1.000000 -0.000000
vn 0.000000 1.000000 -0.000000
vn 0.000000 1.000000 -0.000000
vn 0.000000 1.000000 -0.000000
vn 0.000000 1.000000 -0.000000
vn 0.000000 1.000000 -0.000000
vn 0.000000 1.000000 -0.000000
vn 0.000000 1.000000 -0.000000
vn 0.000000 1.000000 -0.000000
vn 0.000000 1.000000 -0.000000
vn 0.000000 1.000000 -0.000000
vn 0.000000 1.000000 -0.000000
vn 0.000000 1.000000 -0.000000
vn 0.000000 1.000000 -0.000000
vn 0.000000 1.000000 -0.000000
vn 0.000000 1.000000 -0.000000
vn 0.000000 1.000000 -0.000000
vn 0.000000 1.000000 -0.000000
vn 0.000000 1.000000 -0.000000
vn 0.000000 1.000000 -0.000000
vn 0.000000 1.000000 -0.000000
vn 0.000000 1.000000 -0.000000
vn 0.000000 1.000000 -0.000000
vn 0.000000 1.000000 -0.000000
vn 0.000000 1.000000 -0.000000
vn 0.000000 1.000000 -0.000000
vn 0.000000 1.000000 -0.000000
vn 0.000000 1.000000 -0.000000
vn 0.000000 1.000000 -0.000000
vn 0.000000 1.000000 -0.000000
vn 0.000000 1.000000 -0.000000
vn 0.000000 1.000000 -0.000000
vn 0.000000 1.000000 -0.000000
vn 0.000000 1.000000 -0.000000
vn 0.000000 1.000000 -0.000000
vn 0.000000 1.000000 -0.000000
vn 0.000000 1.000000 -0.000000
vn 0.000000 1.000000 -0.000000
vn 0.000000 1.000000 -0.000000
vn 0.000000 1.000000 -0.000000
vn 0.000000 1.000000 -0.000000
vn 0.000000 1.000000 -0.000000
vn 0.000000 1.000000 -0.000000
vn 0.000000 1.000000 -0.000000
vn 0.000000 1.000000 -0.000000
vn 0.000000 1.000000 -0.000000
vn 0.000000 1.000000 -0.000000
vn 0.000000 1.000000 -0.000000
vn 0.000000 1.000000 -0.000000
vn 0.000000 1.000000 -0.000000
vn 0.000000 1.000000 -0.000000
vn 0.000000 1.000000 -0.000000
vn 0.000000 1.000000 -0.000000
vn 0.000000 1.000000 -0.000000
vn 0.000000 1.000000 -0.000000
vn 0.000000 1.000000 -0.000000
vn 0.000000 1.000000 -0.000000
vn 0.000000 1.000000 -0.000000
vn 0.000000 1.000000 -0.000000
vn 0.000000 1.000000 -0.000000
vn 0.000000 1.000000 -0.000000
vn 0.000000 1.000000 -0.000000
vn 0.000000 1.000000 -0.000000
vn 0.000000 1.000000 -0.000000
vn 0.000000 1.000000 -0.000000
vn 0.000000 1.000000 -0.000000
vn 0.000000 1.000000 -0.000000
vn 0.000000 1.000000 -0.000000
vn 0.000000 1.000000 -0.000000

f 1//1 2//2 3//3 4//4
f 5//5 6//6 7//7 8//8
f 9//9 10//10 11//11 12//12
f 13//13 14//14 15//15 16//16
f 17//17 18//18 19//19 20//20
f 21//21 22//22 23//23 24//24
f 25//25 26//26 27//27 28//28
f 29//29 30//30 31//31 32//32
f 33//33 34//34 35//35 36//36
f 37//37 38//38 39//39 40//40
f 41//41 42//42 43//43 44//44
f 45//45 46//46 47//47 48//48
f 49//49 50//50 51//51 52//52
f 53/1/53 54/2/54 55/3/55 56/4/56 57/5/57 58/6/58 59/7/59 60/8/60 61/9/61 62/10/62 63/11/63 64/12/64 65/13/65 66/14/66 67/15/67 68/16/68 69/17/69 70/18/70 71/19/71 72/20/72 73/21/73 74/22/74 75/23/75 76/24/76 77/25/77 78/26/78 79/27/79 80/28/80 81/29/81 82/30/82 83/31/83 84/32/84
f 85/1/85 86/2/86 87/3/87 88/4/88 89/5/89 90/6/90 91/7/91 92/8/92 93/9/93 94/10/94 95/11/95 96/12/96 97/13/97 98/14/98 99/15/99 100/16/100 101/17/101 102/18/102 103/19/103 104/20/104 105/21/105 106/22/106 107/23/107 108/24/108 109/25/109 110/26/110 111/27/111 112/28/112 113/29/113 114/30/114 115/31/115 116/32/116
f 117//117 118//118 119//119 120//120
f 121//121 122//122 123//123 124//124
f 125/1/125 126/2/126 127/3/127 128/4/128 129/5/129 130/6/130 131/7/131 132/8/132 133/9/133 134/10/134 135/11/135 136/12/136 137/13/137 138/14/138 139/15/139 140/16/140 141/17/141 142/18/142 143/19/143 144/20/144 145/21/145 146/22/146 147/23/147 148/24/148 149/25/149 150/26/150 151/27/151 152/28/152 153/29/153 154/30/154 155/31/155 156/32/156

# End of File
