# Obj file Generated by Strata Design 3D CX(TM): http://www.strata.com
mtllib Photon, Nate 2.mtl
v 19.709791 -16.562498 39.211224
v -104.551170 -16.562498 -195.905487
v -9.340961 -16.562498 52.145443
v 7.000086 -16.562498 44.869946
v 13.530827 -16.562498 31.487738
v -185.408630 -16.562498 -66.157806
v 0.280821 -16.562498 54.437412
v 7.733951 -16.562498 41.528221
v 0.629988 -16.562498 57.335995
v 257.673309 -16.562498 -10.850406
v -5.437732 -16.562498 26.120241
v -2.024640 -16.562498 43.679104
v 15.323290 -16.562500 57.681545
v 187.242340 -16.562500 -226.826569
v -17.238007 -16.562500 34.881870
v 1.077722 -16.562500 47.706688
v -17.737732 -16.562500 37.046429
v 56.229969 -16.562498 361.129425
v 21.522884 -16.562500 30.828169
v -0.561212 -16.562500 34.325939
v -24.950939 1.656250 -18.317308
v -13.784163 1.656250 -23.377472
v -1.839103 1.656249 -26.163876
v 10.420031 1.656248 -26.566374
v 22.522135 1.656248 -24.569498
v 34.002129 1.656248 -20.249989
v 44.418839 1.656247 -13.773842
v 53.371967 1.656247 -5.389934
v 60.517445 1.656247 4.579554
v 65.580673 1.656247 15.751487
v 68.367073 1.656247 27.696543
v 68.769577 1.656248 39.955677
v 66.772697 1.656248 52.057781
v 62.453186 1.656248 63.537781
v 55.977043 1.656249 73.954491
v 47.593132 1.656250 82.907623
v 37.623642 1.656250 90.053093
v 26.451715 1.656250 95.116318
v 14.506654 1.656251 97.902725
v 2.247512 1.656252 98.305222
v -9.854581 1.656252 96.308350
v -21.334566 1.656252 91.988846
v -31.751282 1.656253 85.512695
v -40.704422 1.656253 77.128784
v -47.849895 1.656253 67.159294
v -52.913124 1.656253 55.987354
v -55.699524 1.656253 44.042294
v -56.102024 1.656252 31.783180
v -54.105148 1.656252 19.681076
v -49.785641 1.656252 8.201076
v -43.309490 1.656251 -2.215643
v -34.925579 1.656250 -11.168777
v -42.574631 -44.718750 -47.294819
v -58.006691 -44.718750 -36.237350
v -70.992073 -44.718750 -22.375648
v -81.023674 -44.718750 -6.246985
v -87.715965 -44.718750 11.528842
v -90.811783 -44.718750 30.268707
v -90.192139 -44.718750 49.252457
v -85.880867 -44.718750 67.750557
v -78.043625 -44.718750 85.052139
v -66.981606 -44.718750 100.492294
v -53.119911 -44.718750 113.477676
v -36.991253 -44.718750 123.509277
v -19.215416 -44.718750 130.201569
v -0.475542 -44.718750 133.297394
v 18.508196 -44.718750 132.677750
v 37.006306 -44.718750 128.366470
v 54.307884 -44.718750 120.529228
v 69.748032 -44.718750 109.467216
v 82.733429 -44.718750 95.605515
v 92.765022 -44.718750 79.476837
v 99.457314 -44.718750 61.701035
v 102.553131 -44.718750 42.961178
v 101.933495 -44.718750 23.977421
v 97.622215 -44.718750 5.479307
v 89.784966 -44.718750 -11.822268
v 78.722946 -44.718750 -27.262438
v 64.861244 -44.718750 -40.247829
v 48.732613 -44.718750 -50.279411
v 30.956785 -44.718750 -56.971706
v 12.216905 -44.718750 -60.067524
v -6.766853 -44.718750 -59.447884
v -25.264961 -44.718750 -55.136604
v 0.280825 -16.562498 26.933041
v -183.752411 -16.562498 150.396912
v 13.530824 -16.562498 49.882717
v 6.077699 -16.562498 36.973526
v -10.435318 -16.562498 44.788555
v 131.588882 -16.562498 214.908173
v 11.003638 -16.562498 29.212248
v -1.055775 -16.562498 37.973919

vt 1.000000 0.500000
vt 0.990401 0.597498
vt 0.961958 0.691297
vt 0.915761 0.777745
vt 0.853587 0.853519
vt 0.777825 0.915708
vt 0.691386 0.961921
vt 0.597592 0.990383
vt 0.500048 0.999999
vt 0.402502 0.990401
vt 0.308703 0.961958
vt 0.222255 0.915761
vt 0.146481 0.853587
vt 0.084292 0.777825
vt 0.038079 0.691386
vt 0.009617 0.597592
vt 0.000001 0.500048
vt 0.009599 0.402502
vt 0.038042 0.308703
vt 0.084239 0.222255
vt 0.146413 0.146481
vt 0.222175 0.084292
vt 0.308614 0.038079
vt 0.402408 0.009617
vt 0.499952 0.000001
vt 0.597498 0.009599
vt 0.691297 0.038042
vt 0.777745 0.084239
vt 0.853519 0.146413
vt 0.915708 0.222175
vt 0.961921 0.308614
vt 0.990383 0.402408

vn -0.000000 1.000000 0.000000
vn -0.000000 1.000000 0.000000
vn -0.000000 1.000000 0.000000
vn -0.000000 1.000000 0.000000
vn -0.000000 1.000000 0.000000
vn -0.000000 1.000000 0.000000
vn -0.000000 1.000000 0.000000
vn -0.000000 1.000000 0.000000
vn -0.000000 1.000000 0.000000
vn -0.000000 1.000000 0.000000
vn -0.000000 1.000000 0.000000
vn -0.000000 1.000000 0.000000
vn 0.000000 1.000000 -0.000000
vn 0.000000 1.000000 -0.000000
vn 0.000000 1.000000 -0.000000
vn 0.000000 1.000000 -0.000000
vn 0.000000 1.000000 -0.000000
vn 0.000000 1.000000 -0.000000
vn 0.000000 1.000000 -0.000000
vn 0.000000 1.000000 -0.000000
vn -0.000000 -1.000000 0.000000
vn -0.000000 -1.000000 0.000000
vn -0.000000 -1.000000 0.000000
vn -0.000000 -1.000000 0.000000
vn -0.000000 -1.000000 0.000000
vn -0.000000 -1.000000 0.000000
vn -0.000000 -1.000000 0.000000
vn -0.000000 -1.000000 0.000000
vn -0.000000 -1.000000 0.000000
vn -0.000000 -1.000000 0.000000
vn -0.000000 -1.000000 0.000000
vn -0.000000 -1.000000 0.000000
vn -0.000000 -1.000000 0.000000
vn -0.000000 -1.000000 0.000000
vn -0.000000 -1.000000 0.000000
vn -0.000000 -1.000000 0.000000
vn -0.000000 -1.000000 0.000000
vn -0.000000 -1.000000 0.000000
vn -0.000000 -1.000000 0.000000
vn -0.000000 -1.000000 0.000000
vn -0.000000 -1.000000 0.000000
vn -0.000000 -1.000000 0.000000
vn -0.000000 -1.000000 0.000000
vn -0.000000 -1.000000 0.000000
vn -0.000000 -1.000000 0.000000
vn -0.000000 -1.000000 0.000000
vn -0.000000 -1.000000 0.000000
vn -0.000000 -1.000000 0.000000
vn -0.000000 -1.000000 0.000000
vn -0.000000 -1.000000 0.000000
vn -0.000000 -1.000000 0.000000
vn -0.000000 -1.000000 0.000000
vn 0.000000 1.000000 -0.000000
vn 0.000000 1.000000 -0.000000
vn 0.000000 1.000000 -0.000000
vn 0.000000 1.000000 -0.000000
vn 0.000000 1.000000 -0.000000
vn 0.000000 1.000000 -0.000000
vn 0.000000 1.000000 -0.000000
vn 0.000000 1.000000 -0.000000
vn 0.000000 1.000000 -0.000000
vn 0.000000 1.000000 -0.000000
vn 0.000000 1.000000 -0.000000
vn 0.000000 1.000000 -0.000000
vn 0.000000 1.000000 -0.000000
vn 0.000000 1.000000 -0.000000
vn 0.000000 1.000000 -0.000000
vn 0.000000 1.000000 -0.000000
vn 0.000000 1.000000 -0.000000
vn 0.000000 1.000000 -0.000000
vn 0.000000 1.000000 -0.000000
vn 0.000000 1.000000 -0.000000
vn 0.000000 1.000000 -0.000000
vn 0.000000 1.000000 -0.000000
vn 0.000000 1.000000 -0.000000
vn 0.000000 1.000000 -0.000000
vn 0.000000 1.000000 -0.000000
vn 0.000000 1.000000 -0.000000
vn 0.000000 1.000000 -0.000000
vn 0.000000 1.000000 -0.000000
vn 0.000000 1.000000 -0.000000
vn 0.000000 1.000000 -0.000000
vn 0.000000 1.000000 -0.000000
vn 0.000000 1.000000 -0.000000
vn 0.000000 1.000000 -0.000000
vn 0.000000 1.000000 -0.000000
vn 0.000000 1.000000 -0.000000
vn 0.000000 1.000000 -0.000000
vn 0.000000 1.000000 -0.000000
vn 0.000000 1.000000 -0.000000
vn 0.000000 1.000000 -0.000000
vn 0.000000 1.000000 -0.000000

f 1//1 2//2 3//3 4//4
f 5//5 6//6 7//7 8//8
f 9//9 10//10 11//11 12//12
f 13//13 14//14 15//15 16//16
f 17//17 18//18 19//19 20//20
f 21/1/21 22/2/22 23/3/23 24/4/24 25/5/25 26/6/26 27/7/27 28/8/28 29/9/29 30/10/30 31/11/31 32/12/32 33/13/33 34/14/34 35/15/35 36/16/36 37/17/37 38/18/38 39/19/39 40/20/40 41/21/41 42/22/42 43/23/43 44/24/44 45/25/45 46/26/46 47/27/47 48/28/48 49/29/49 50/30/50 51/31/51 52/32/52
f 53/1/53 54/2/54 55/3/55 56/4/56 57/5/57 58/6/58 59/7/59 60/8/60 61/9/61 62/10/62 63/11/63 64/12/64 65/13/65 66/14/66 67/15/67 68/16/68 69/17/69 70/18/70 71/19/71 72/20/72 73/21/73 74/22/74 75/23/75 76/24/76 77/25/77 78/26/78 79/27/79 80/28/80 81/29/81 82/30/82 83/31/83 84/32/84
f 85//85 86//86 87//87 88//88
f 89//89 90//90 91//91 92//92

# End of File
