# Obj file Generated by Strata Design 3D CX(TM): http://www.strata.com
mtllib Supply Pack.mtl
v -315.301575 1672.313965 -258.799194
v -316.283081 1671.576782 -258.317413
v -315.517792 1672.687012 -257.552948
v -155.283234 1507.622803 -181.331635
v -154.549820 1508.686646 -180.599060
v -154.342636 1508.329224 -181.793365
v -315.692383 1671.485107 -259.747467
v -154.717102 1507.534912 -182.702133
v -314.561676 1672.538574 -259.867554
v -153.633514 1508.544434 -182.817154
v -314.453125 1673.281738 -258.511688
v -153.529510 1509.256714 -181.517761
v -123.173065 1816.603516 -353.123322
v -272.983215 1599.298340 -502.741211
v 81.628868 1799.491455 -360.052826
v -152.569794 1459.777588 -593.950928
v 146.012451 1733.897583 -329.250488
v -88.186218 1394.183716 -563.148621
v -238.791275 1834.570557 -73.195282
v -99.117508 1827.579224 77.559547
v -34.733932 1761.985352 108.361885
v -460.109589 1628.377686 -49.681881
v -445.105042 1505.237305 114.317986
v -380.721466 1439.643433 145.120392
v -481.373352 1482.883545 -315.067291
v -478.346680 1277.785889 -300.559753
v -413.963104 1212.192017 -269.757416
v 235.375244 1642.907593 -286.031860
v 1.143628 1302.964844 -520.348694
v -65.012794 1417.110229 -138.993439
v 54.267403 1670.582764 151.457306
v 299.758820 1577.313721 -255.229507
v 65.527206 1237.370850 -489.546326
v 118.650978 1604.988770 182.259644
v 288.095764 1397.561646 -156.043808
v 138.264526 1180.109863 -305.929596
v 172.246246 1415.264526 123.805435
v 95.946159 1253.125488 -61.987583
v -291.627930 1348.081665 187.684357
v -227.244354 1282.487793 218.486694
v -49.013081 1208.969849 146.978760
v -324.451080 1120.944580 -227.398926
v -260.067505 1055.350708 -196.596588
v -70.009064 1063.676758 -118.538055
v -65.953644 1416.403076 -138.532822
v -65.219978 1417.467773 -137.799133
v -65.386513 1416.316284 -139.903015
v 94.964439 1252.387573 -61.506989
v 95.729958 1253.498535 -60.741318
v 95.556229 1252.296997 -62.936745
v -64.303185 1417.326294 -140.016571
v 96.686646 1253.350952 -63.055195
v -64.200310 1418.037720 -138.716660
v 96.793961 1254.093262 -61.698753
v 5.098402 1309.127930 -427.380157
v 48.411625 1352.102173 -426.399994
v 88.099098 1396.808838 -414.152161
v 122.635620 1441.529785 -391.107330
v 150.693924 1484.546265 -358.151123
v 171.195648 1524.205200 -316.550140
v 183.352905 1558.982422 -267.903046
v 186.698547 1587.541382 -214.079468
v 181.103973 1608.784668 -157.147812
v 166.784164 1621.895874 -99.296005
v 144.289490 1626.370972 -42.747341
v 114.484383 1622.038208 10.324971
v 78.514252 1609.063843 57.881416
v 37.761509 1587.946655 98.094254
v -6.207747 1559.498169 129.418152
v -51.703667 1524.811646 150.649277
v -96.977875 1485.220215 160.971695
v -140.290436 1442.245239 159.988739
v -179.976883 1397.538330 147.738159
v -214.511963 1352.817627 124.690796
v -242.568481 1309.801758 91.732346
v -263.068237 1270.143921 50.129436
v -275.223419 1235.368042 1.480846
v -278.566895 1206.810669 -52.343796
v -272.970123 1185.569336 -109.275948
v -258.648254 1172.460205 -167.127731
v -236.151627 1167.987183 -223.675797
v -206.344849 1172.322266 -276.747070
v -170.373398 1185.298584 -324.301880
v -129.619675 1206.417603 -364.512726
v -85.649872 1234.867798 -395.834229
v -40.153778 1269.555664 -417.062775
v -123.545525 1440.190186 -488.925903
v -168.797699 1400.617920 -478.608490
v -214.293793 1365.930054 -457.379974
v -258.263611 1337.479858 -426.058441
v -299.017303 1316.360840 -385.847595
v -334.988770 1303.384521 -338.292786
v -364.795532 1299.049438 -285.221527
v -387.292175 1303.522461 -228.673447
v -401.614044 1316.631592 -170.821671
v -407.210815 1337.872925 -113.889519
v -403.867340 1366.430298 -60.064880
v -391.712158 1401.206177 -11.416286
v -371.212402 1440.864014 30.186619
v -343.155884 1483.879883 63.145073
v -308.620819 1528.600586 86.192436
v -268.934357 1573.307495 98.443024
v -225.621796 1616.282471 99.425972
v -180.347595 1655.873901 89.103554
v -134.851669 1690.560425 67.872437
v -90.882416 1719.008911 36.548531
v -50.129677 1740.126099 -3.664306
v -14.159540 1753.100464 -51.220753
v 15.645562 1757.433228 -104.293068
v 38.140240 1752.958130 -160.841736
v 52.460056 1739.846924 -218.693527
v 58.054623 1718.603638 -275.625183
v 54.708977 1690.044678 -329.448761
v 42.551723 1655.267456 -378.095856
v 22.050005 1615.608521 -419.696838
v -6.008305 1572.592041 -452.653076
v -40.544827 1527.871094 -475.697876
v -80.232300 1483.164429 -487.945740

vt 0.000000 0.500000
vt 0.009608 0.402453
vt 0.038061 0.308656
vt 0.084268 0.222211
vt 0.146451 0.146442
vt 0.222221 0.084261
vt 0.308667 0.038057
vt 0.402465 0.009605
vt 0.500012 0.000000
vt 0.597558 0.009610
vt 0.691355 0.038066
vt 0.777799 0.084274
vt 0.853566 0.146459
vt 0.915746 0.222231
vt 0.961948 0.308678
vt 0.990397 0.402477
vt 1.000000 0.500024
vt 0.990388 0.597570
vt 0.961929 0.691367
vt 0.915719 0.777809
vt 0.853532 0.853575
vt 0.777759 0.915752
vt 0.691311 0.961952
vt 0.597511 0.990399
vt 0.499964 1.000000
vt 0.402418 0.990385
vt 0.308622 0.961925
vt 0.222181 0.915712
vt 0.146417 0.853524
vt 0.084241 0.777749
vt 0.038043 0.691300
vt 0.009598 0.597500
vt 0.009598 0.402500
vt 0.038043 0.308700
vt 0.084241 0.222251
vt 0.146417 0.146476
vt 0.222181 0.084288
vt 0.308622 0.038075
vt 0.402418 0.009615
vt 0.499964 0.000000
vt 0.597511 0.009601
vt 0.691311 0.038048
vt 0.777759 0.084248
vt 0.853532 0.146425
vt 0.915719 0.222191
vt 0.961929 0.308633
vt 0.990388 0.402430
vt 1.000000 0.499976
vt 0.990397 0.597523
vt 0.961948 0.691322
vt 0.915746 0.777769
vt 0.853566 0.853541
vt 0.777799 0.915726
vt 0.691355 0.961934
vt 0.597558 0.990390
vt 0.500012 1.000000
vt 0.402465 0.990395
vt 0.308667 0.961943
vt 0.222221 0.915739
vt 0.146451 0.853558
vt 0.084268 0.777789
vt 0.038061 0.691344
vt 0.009608 0.597547
vt 0.000000 1.000000
vt 0.000000 0.000000
vt 0.031250 0.000000
vt 0.031250 1.000000
vt 0.062500 0.000000
vt 0.062500 1.000000
vt 0.093750 0.000000
vt 0.093750 1.000000
vt 0.125000 0.000000
vt 0.125000 1.000000
vt 0.156250 0.000000
vt 0.156250 1.000000
vt 0.187500 0.000000
vt 0.187500 1.000000
vt 0.218750 0.000000
vt 0.218750 1.000000
vt 0.250000 0.000000
vt 0.250000 1.000000
vt 0.281250 0.000000
vt 0.281250 1.000000
vt 0.312500 0.000000
vt 0.312500 1.000000
vt 0.343750 0.000000
vt 0.343750 1.000000
vt 0.375000 0.000000
vt 0.375000 1.000000
vt 0.406250 0.000000
vt 0.406250 1.000000
vt 0.437500 0.000000
vt 0.437500 1.000000
vt 0.468750 0.000000
vt 0.468750 1.000000
vt 0.500000 0.000000
vt 0.500000 1.000000
vt 0.531250 0.000000
vt 0.531250 1.000000
vt 0.562500 0.000000
vt 0.562500 1.000000
vt 0.593750 0.000000
vt 0.593750 1.000000
vt 0.625000 0.000000
vt 0.625000 1.000000
vt 0.656250 0.000000
vt 0.656250 1.000000
vt 0.687500 0.000000
vt 0.687500 1.000000
vt 0.718750 0.000000
vt 0.718750 1.000000
vt 0.750000 0.000000
vt 0.750000 1.000000
vt 0.781250 0.000000
vt 0.781250 1.000000
vt 0.812500 0.000000
vt 0.812500 1.000000
vt 0.843750 0.000000
vt 0.843750 1.000000
vt 0.875000 0.000000
vt 0.875000 1.000000
vt 0.906250 0.000000
vt 0.906250 1.000000
vt 0.937500 0.000000
vt 0.937500 1.000000
vt 0.968750 0.000000
vt 0.968750 1.000000
vt 1.000000 0.000000
vt 1.000000 1.000000

vn -0.664174 0.676684 -0.317761
vn -0.664186 0.676672 -0.317760
vn -0.664186 0.676672 -0.317760
vn -0.561203 -0.170815 0.809861
vn -0.642999 -0.734027 -0.218533
vn -0.664159 0.676697 -0.317762
vn -0.561197 -0.170807 0.809866
vn 0.296479 0.628440 0.719141
vn -0.561197 -0.170807 0.809866
vn 0.664128 -0.676727 0.317766
vn -0.642997 -0.734027 -0.218538
vn -0.561191 -0.170798 0.809872
vn 0.664216 -0.676645 0.317756
vn 0.296464 0.628431 0.719155
vn 0.664169 -0.676688 0.317761
vn 0.664186 -0.676672 0.317760
vn -0.664155 0.676702 -0.317763
vn -0.643001 -0.734027 -0.218527
vn 0.163673 -0.283356 -0.944945
vn -0.642999 -0.734027 -0.218533
vn 0.664144 -0.676712 0.317764
vn 0.163683 -0.283346 -0.944946
vn -0.664182 0.676677 -0.317760
vn 0.163663 -0.283365 -0.944944
vn 0.744402 0.558616 -0.365806
vn 0.163673 -0.283356 -0.944945
vn 0.664173 -0.676684 0.317761
vn 0.744402 0.558615 -0.365808
vn -0.664186 0.676672 -0.317760
vn 0.744402 0.558618 -0.365803
vn 0.296464 0.628431 0.719155
vn 0.744402 0.558616 -0.365806
vn 0.296448 0.628423 0.719168
vn 0.664186 -0.676672 0.317760
vn -0.263609 0.898516 -0.350970
vn -0.446376 0.553938 -0.702780
vn 0.417554 0.796309 -0.437654
vn -0.095863 0.030673 -0.994922
vn 0.561287 0.170636 -0.809840
vn 0.664186 -0.676672 0.317760
vn 0.643145 0.733899 0.218533
vn 0.561287 0.170636 -0.809840
vn 0.664186 -0.676672 0.317760
vn -0.296405 -0.628590 -0.719040
vn -0.537626 0.838039 0.092999
vn -0.013655 0.836102 0.548405
vn 0.643145 0.733899 0.218533
vn 0.664187 -0.676672 0.317760
vn -0.163511 0.283269 0.944999
vn -0.889784 0.456110 0.015764
vn -0.793560 0.095279 0.600986
vn -0.163511 0.283269 0.944999
vn 0.664186 -0.676672 0.317760
vn -0.744275 -0.558701 0.365935
vn -0.833460 0.280383 -0.476162
vn -0.844603 -0.402680 -0.352838
vn -0.744275 -0.558701 0.365935
vn -0.296405 -0.628590 -0.719040
vn 0.664186 -0.676672 0.317760
vn -0.664187 0.676672 -0.317759
vn 0.561580 0.171061 -0.809547
vn 0.642693 0.733969 0.219626
vn -0.664186 0.676672 -0.317760
vn 0.561579 0.171061 -0.809548
vn -0.295997 -0.628363 -0.719407
vn -0.664186 0.676672 -0.317760
vn -0.664170 0.676688 -0.317761
vn -0.664187 0.676672 -0.317760
vn 0.642693 0.733969 0.219626
vn -0.164376 0.282463 0.945090
vn 0.945883 0.227933 -0.230982
vn 0.396159 -0.548801 -0.736122
vn 0.555839 0.314883 0.769345
vn 0.910200 -0.412789 0.033800
vn 0.588774 -0.799629 -0.118062
vn 0.794765 -0.292166 0.531965
vn 0.664186 -0.676672 0.317760
vn 0.664191 -0.676668 0.317759
vn -0.664186 0.676672 -0.317760
vn -0.164376 0.282463 0.945090
vn -0.744357 -0.559269 0.364898
vn -0.234559 -0.407836 0.882412
vn 0.402181 -0.604346 0.687762
vn -0.664186 0.676672 -0.317760
vn -0.744357 -0.559269 0.364898
vn -0.295997 -0.628363 -0.719406
vn -0.333349 -0.941594 -0.047738
vn 0.274857 -0.917923 0.286130
vn -0.664186 0.676672 -0.317760
vn -0.561639 -0.170847 0.809551
vn -0.642846 -0.733840 -0.219609
vn -0.664186 0.676672 -0.317760
vn -0.561656 -0.170871 0.809534
vn 0.295912 0.628507 0.719316
vn -0.664144 0.676711 -0.317764
vn -0.642845 -0.733840 -0.219612
vn 0.164214 -0.282377 -0.945144
vn -0.561656 -0.170871 0.809534
vn -0.642847 -0.733840 -0.219607
vn 0.664186 -0.676672 0.317760
vn -0.561673 -0.170896 0.809517
vn 0.664200 -0.676660 0.317758
vn 0.295920 0.628512 0.719308
vn -0.642846 -0.733840 -0.219609
vn 0.664172 -0.676686 0.317761
vn 0.164224 -0.282367 -0.945145
vn -0.664144 0.676711 -0.317764
vn 0.164204 -0.282386 -0.945143
vn 0.744231 0.559368 -0.365003
vn 0.164214 -0.282377 -0.945144
vn 0.664212 -0.676648 0.317757
vn 0.744232 0.559375 -0.364989
vn -0.664186 0.676672 -0.317760
vn 0.744231 0.559361 -0.365016
vn 0.295920 0.628512 0.719308
vn 0.744231 0.559368 -0.365003
vn 0.664186 -0.676672 0.317760
vn 0.295928 0.628516 0.719301
vn 0.664186 -0.676672 0.317760
vn 0.163961 -0.282850 -0.945046
vn 0.664186 -0.676672 0.317760
vn 0.303088 -0.144811 -0.941896
vn 0.664186 -0.676672 0.317760
vn 0.430585 -0.001190 -0.902549
vn 0.664186 -0.676672 0.317760
vn 0.541534 0.142477 -0.828517
vn 0.664186 -0.676672 0.317760
vn 0.631672 0.280669 -0.722645
vn 0.664186 -0.676672 0.317760
vn 0.697534 0.408074 -0.589001
vn 0.664186 -0.676672 0.317760
vn 0.736590 0.519796 -0.432721
vn 0.664186 -0.676672 0.317760
vn 0.747338 0.611543 -0.259812
vn 0.664186 -0.676672 0.317760
vn 0.729365 0.679787 -0.076917
vn 0.664186 -0.676672 0.317760
vn 0.683362 0.721907 0.108933
vn 0.664186 -0.676672 0.317760
vn 0.611098 0.736284 0.290597
vn 0.664186 -0.676672 0.317760
vn 0.515348 0.722364 0.461093
vn 0.664186 -0.676672 0.317760
vn 0.399793 0.680684 0.613869
vn 0.664186 -0.676672 0.317760
vn 0.268874 0.612845 0.743053
vn 0.664186 -0.676672 0.317760
vn 0.127622 0.521453 0.843682
vn 0.664186 -0.676672 0.317760
vn -0.018534 0.410022 0.911887
vn 0.664186 -0.676672 0.317760
vn -0.163979 0.282834 0.945048
vn 0.664186 -0.676672 0.317760
vn -0.303121 0.144776 0.941890
vn 0.664186 -0.676672 0.317760
vn -0.430615 0.001154 0.902535
vn 0.664186 -0.676672 0.317760
vn -0.541559 -0.142512 0.828495
vn 0.664186 -0.676672 0.317760
vn -0.631691 -0.280701 0.722615
vn 0.664186 -0.676672 0.317760
vn -0.697547 -0.408103 0.588965
vn 0.664186 -0.676672 0.317760
vn -0.736596 -0.519821 0.432681
vn 0.664186 -0.676672 0.317760
vn -0.747337 -0.611562 0.259768
vn 0.664186 -0.676672 0.317760
vn -0.729357 -0.679801 0.076872
vn 0.664186 -0.676672 0.317760
vn -0.683348 -0.721914 -0.108978
vn 0.664186 -0.676672 0.317760
vn -0.611077 -0.736284 -0.290640
vn 0.664186 -0.676672 0.317760
vn -0.515322 -0.722357 -0.461132
vn 0.664186 -0.676672 0.317760
vn -0.399763 -0.680670 -0.613903
vn 0.664186 -0.676672 0.317760
vn -0.268841 -0.612825 -0.743082
vn 0.664186 -0.676672 0.317760
vn -0.127587 -0.521428 -0.843703
vn 0.664186 -0.676672 0.317760
vn 0.018552 -0.410008 -0.911894
vn -0.664186 0.676672 -0.317760
vn 0.163961 -0.282850 -0.945046
vn -0.664186 0.676672 -0.317760
vn 0.018552 -0.410008 -0.911894
vn -0.664186 0.676672 -0.317760
vn -0.127587 -0.521428 -0.843703
vn -0.664186 0.676672 -0.317760
vn -0.268841 -0.612825 -0.743082
vn -0.664186 0.676672 -0.317760
vn -0.399763 -0.680670 -0.613903
vn -0.664186 0.676672 -0.317760
vn -0.515322 -0.722357 -0.461132
vn -0.664186 0.676672 -0.317760
vn -0.611077 -0.736284 -0.290640
vn -0.664186 0.676672 -0.317760
vn -0.683348 -0.721914 -0.108978
vn -0.664186 0.676672 -0.317760
vn -0.729357 -0.679801 0.076872
vn -0.664186 0.676672 -0.317760
vn -0.747337 -0.611562 0.259768
vn -0.664186 0.676672 -0.317760
vn -0.736596 -0.519821 0.432681
vn -0.664186 0.676672 -0.317760
vn -0.697547 -0.408103 0.588965
vn -0.664186 0.676672 -0.317760
vn -0.631691 -0.280701 0.722615
vn -0.664186 0.676672 -0.317760
vn -0.541559 -0.142512 0.828495
vn -0.664186 0.676672 -0.317760
vn -0.430615 0.001154 0.902535
vn -0.664186 0.676672 -0.317760
vn -0.303121 0.144776 0.941890
vn -0.664186 0.676672 -0.317760
vn -0.163979 0.282834 0.945048
vn -0.664186 0.676672 -0.317760
vn -0.018534 0.410022 0.911887
vn -0.664186 0.676672 -0.317760
vn 0.127622 0.521453 0.843682
vn -0.664186 0.676672 -0.317760
vn 0.268874 0.612845 0.743053
vn -0.664186 0.676672 -0.317760
vn 0.399793 0.680684 0.613869
vn -0.664186 0.676672 -0.317760
vn 0.515348 0.722364 0.461093
vn -0.664186 0.676672 -0.317760
vn 0.611098 0.736284 0.290597
vn -0.664186 0.676672 -0.317760
vn 0.683362 0.721907 0.108933
vn -0.664186 0.676672 -0.317760
vn 0.729365 0.679787 -0.076917
vn -0.664186 0.676672 -0.317760
vn 0.747338 0.611543 -0.259812
vn -0.664186 0.676672 -0.317760
vn 0.736590 0.519796 -0.432721
vn -0.664186 0.676672 -0.317760
vn 0.697534 0.408074 -0.589001
vn -0.664186 0.676672 -0.317760
vn 0.631672 0.280669 -0.722645
vn -0.664186 0.676672 -0.317760
vn 0.541534 0.142477 -0.828517
vn -0.664186 0.676672 -0.317760
vn 0.430585 -0.001190 -0.902549
vn -0.664186 0.676672 -0.317760
vn 0.303088 -0.144811 -0.941896

f 1//1 2//3 3//6
f 3//7 4//9 5//12
f 3//7 2//4 4//9
f 5//13 4//10 6//15
f 1//1 7//17 2//3
f 2//5 8//20 4//11
f 2//5 7//18 8//20
f 4//10 8//21 6//15
f 1//1 9//23 7//17
f 7//19 10//26 8//22
f 7//19 9//24 10//26
f 8//21 10//27 6//15
f 1//1 11//29 9//23
f 1//1 3//6 11//29
f 9//25 12//32 10//28
f 9//25 11//30 12//32
f 11//31 5//14 12//33
f 11//31 3//8 5//14
f 10//27 12//34 6//15
f 12//34 5//13 6//15
f 1//2 13//35 14//36
f 14//36 15//37 16//38
f 14//36 13//35 15//37
f 16//38 17//39 18//42
f 16//38 15//37 17//39
f 18//43 17//40 6//16
f 1//2 19//45 13//35
f 13//35 20//46 15//37
f 13//35 19//45 20//46
f 15//37 21//47 17//41
f 15//37 20//46 21//47
f 17//40 21//48 6//16
f 1//2 22//50 19//45
f 19//45 23//51 20//46
f 19//45 22//50 23//51
f 20//46 24//52 21//49
f 20//46 23//51 24//52
f 21//48 24//53 6//16
f 1//2 25//55 22//50
f 1//2 14//36 25//55
f 22//50 26//56 23//51
f 22//50 25//55 26//56
f 25//55 16//38 26//56
f 25//55 14//36 16//38
f 23//51 27//57 24//54
f 23//51 26//56 27//57
f 26//56 18//44 27//58
f 26//56 16//38 18//44
f 24//53 27//59 6//16
f 27//59 18//43 6//16
f 28//60 29//63 30//66
f 31//68 28//60 30//66
f 32//71 33//72 29//64
f 32//71 29//64 28//61
f 34//73 32//71 28//62
f 34//73 28//62 31//69
f 35//74 36//75 33//72
f 35//74 33//72 32//71
f 37//76 35//74 32//71
f 37//76 32//71 34//73
f 38//77 36//75 35//74
f 38//77 35//74 37//76
f 39//79 31//68 30//66
f 40//82 34//73 31//70
f 40//82 31//70 39//80
f 41//83 37//76 34//73
f 41//83 34//73 40//82
f 38//77 37//76 41//83
f 42//84 39//79 30//66
f 43//87 40//82 39//81
f 43//87 39//81 42//85
f 44//88 41//83 40//82
f 44//88 40//82 43//87
f 38//77 41//83 44//88
f 29//63 42//84 30//66
f 33//72 43//87 42//86
f 33//72 42//86 29//65
f 36//75 44//88 43//87
f 36//75 43//87 33//72
f 38//77 44//88 36//75
f 45//89 46//92 30//67
f 47//95 45//89 30//67
f 48//98 49//101 46//93
f 48//98 46//93 45//90
f 50//104 48//99 45//91
f 50//104 45//91 47//96
f 38//78 49//102 48//100
f 38//78 48//100 50//105
f 51//107 47//95 30//67
f 52//110 50//106 47//97
f 52//110 47//97 51//108
f 38//78 50//105 52//111
f 53//113 51//107 30//67
f 54//116 52//112 51//109
f 54//116 51//109 53//114
f 38//78 52//111 54//117
f 46//92 53//113 30//67
f 49//103 54//118 53//115
f 49//103 53//115 46//94
f 38//78 54//117 49//102
f 55/1/119 56/2/121 57/3/123 58/4/125 59/5/127 60/6/129 61/7/131 62/8/133 63/9/135 64/10/137 65/11/139 66/12/141 67/13/143 68/14/145 69/15/147 70/16/149 71/17/151 72/18/153 73/19/155 74/20/157 75/21/159 76/22/161 77/23/163 78/24/165 79/25/167 80/26/169 81/27/171 82/28/173 83/29/175 84/30/177 85/31/179 86/32/181
f 87/1/183 88/33/185 89/34/187 90/35/189 91/36/191 92/37/193 93/38/195 94/39/197 95/40/199 96/41/201 97/42/203 98/43/205 99/44/207 100/45/209 101/46/211 102/47/213 103/48/215 104/49/217 105/50/219 106/51/221 107/52/223 108/53/225 109/54/227 110/55/229 111/56/231 112/57/233 113/58/235 114/59/237 115/60/239 116/61/241 117/62/243 118/63/245
f 87/64/184 55/65/120 86/66/182 88/67/186
f 88/67/186 86/66/182 85/68/180 89/69/188
f 89/69/188 85/68/180 84/70/178 90/71/190
f 90/71/190 84/70/178 83/72/176 91/73/192
f 91/73/192 83/72/176 82/74/174 92/75/194
f 92/75/194 82/74/174 81/76/172 93/77/196
f 93/77/196 81/76/172 80/78/170 94/79/198
f 94/79/198 80/78/170 79/80/168 95/81/200
f 95/81/200 79/80/168 78/82/166 96/83/202
f 96/83/202 78/82/166 77/84/164 97/85/204
f 97/85/204 77/84/164 76/86/162 98/87/206
f 98/87/206 76/86/162 75/88/160 99/89/208
f 99/89/208 75/88/160 74/90/158 100/91/210
f 100/91/210 74/90/158 73/92/156 101/93/212
f 101/93/212 73/92/156 72/94/154 102/95/214
f 102/95/214 72/94/154 71/96/152 103/97/216
f 103/97/216 71/96/152 70/98/150 104/99/218
f 104/99/218 70/98/150 69/100/148 105/101/220
f 105/101/220 69/100/148 68/102/146 106/103/222
f 106/103/222 68/102/146 67/104/144 107/105/224
f 107/105/224 67/104/144 66/106/142 108/107/226
f 108/107/226 66/106/142 65/108/140 109/109/228
f 109/109/228 65/108/140 64/110/138 110/111/230
f 110/111/230 64/110/138 63/112/136 111/113/232
f 111/113/232 63/112/136 62/114/134 112/115/234
f 112/115/234 62/114/134 61/116/132 113/117/236
f 113/117/236 61/116/132 60/118/130 114/119/238
f 114/119/238 60/118/130 59/120/128 115/121/240
f 115/121/240 59/120/128 58/122/126 116/123/242
f 116/123/242 58/122/126 57/124/124 117/125/244
f 117/125/244 57/124/124 56/126/122 118/127/246
f 118/127/246 56/126/122 55/128/120 87/129/184

# End of File
