# Obj file Generated by Strata Design 3D CX(TM): http://www.strata.com
mtllib Practice Drone Model.mtl
v -0.419757 94.576279 -17.434679
v -22.163202 94.576279 -4.881155
v -14.915554 74.076401 -17.434679
v -22.163454 94.576279 -29.988203
v -30.003799 95.031799 -17.434679
v -29.715298 95.031799 -20.363869
v -28.860868 95.031799 -23.180489
v -27.473360 95.031799 -25.776297
v -25.606083 95.031799 -28.051533
v -23.330805 95.031799 -29.918753
v -20.734970 95.031799 -31.306202
v -17.918329 95.031799 -32.160561
v -14.989133 95.031799 -32.448997
v -12.059950 95.031799 -32.160423
v -9.243351 95.031799 -31.305929
v -6.647582 95.031799 -29.918356
v -4.372391 95.031799 -28.051023
v -2.505227 95.031799 -25.775703
v -1.117838 95.031799 -23.179829
v -0.263547 95.031799 -20.363167
v 0.024817 95.031799 -17.433962
v -0.263826 95.031799 -14.504784
v -1.118389 95.031799 -11.688201
v -2.506025 95.031799 -9.092462
v -4.373408 95.031799 -6.817318
v -6.648772 95.031799 -4.950208
v -9.244677 95.031799 -3.562881
v -12.061357 95.031799 -2.708656
v -14.990571 95.031799 -2.420363
v -17.919741 95.031799 -2.709077
v -20.736298 95.031799 -3.563707
v -23.332003 95.031799 -4.951406
v -25.607101 95.031799 -6.818844
v -27.474157 95.031799 -9.094256
v -28.861418 95.031799 -11.690196
v -29.715576 95.031799 -14.506899
v -30.003799 98.215698 -17.434679
v -29.715576 98.215698 -14.506899
v -28.861418 98.215698 -11.690196
v -27.474157 98.215698 -9.094256
v -25.607101 98.215698 -6.818844
v -23.332003 98.215698 -4.951406
v -20.736298 98.215698 -3.563707
v -17.919741 98.215698 -2.709077
v -14.990571 98.215698 -2.420363
v -12.061357 98.215698 -2.708656
v -9.244677 98.215698 -3.562881
v -6.648772 98.215698 -4.950208
v -4.373408 98.215698 -6.817318
v -2.506025 98.215698 -9.092462
v -1.118389 98.215698 -11.688201
v -0.263826 98.215698 -14.504784
v 0.024817 98.215698 -17.433962
v -0.263547 98.215698 -20.363167
v -1.117838 98.215698 -23.179829
v -2.505227 98.215698 -25.775703
v -4.372391 98.215698 -28.051023
v -6.647582 98.215698 -29.918356
v -9.243351 98.215698 -31.305929
v -12.059950 98.215698 -32.160423
v -14.989133 98.215698 -32.448997
v -17.918329 98.215698 -32.160561
v -20.734970 98.215698 -31.306202
v -23.330805 98.215698 -29.918753
v -25.606083 98.215698 -28.051533
v -27.473360 98.215698 -25.776297
v -28.860868 98.215698 -23.180489
v -29.715298 98.215698 -20.363869
v -30.003799 90.680473 -17.434679
v -29.715298 90.680473 -20.363869
v -28.860868 90.680473 -23.180489
v -27.473360 90.680473 -25.776297
v -25.606083 90.680473 -28.051533
v -23.330805 90.680473 -29.918753
v -20.734970 90.680473 -31.306202
v -17.918329 90.680473 -32.160561
v -14.989133 90.680473 -32.448997
v -12.059950 90.680473 -32.160423
v -9.243351 90.680473 -31.305929
v -6.647582 90.680473 -29.918356
v -4.372391 90.680473 -28.051023
v -2.505227 90.680473 -25.775703
v -1.117838 90.680473 -23.179829
v -0.263547 90.680473 -20.363167
v 0.024817 90.680473 -17.433962
v -0.263826 90.680473 -14.504784
v -1.118389 90.680473 -11.688201
v -2.506025 90.680473 -9.092462
v -4.373408 90.680473 -6.817318
v -6.648772 90.680473 -4.950208
v -9.244677 90.680473 -3.562881
v -12.061357 90.680473 -2.708656
v -14.990571 90.680473 -2.420363
v -17.919741 90.680473 -2.709077
v -20.736298 90.680473 -3.563707
v -23.332003 90.680473 -4.951406
v -25.607101 90.680473 -6.818844
v -27.474157 90.680473 -9.094256
v -28.861418 90.680473 -11.690196
v -29.715576 90.680473 -14.506899
v -30.003799 93.864372 -17.434679
v -29.715576 93.864372 -14.506899
v -28.861418 93.864372 -11.690196
v -27.474157 93.864372 -9.094256
v -25.607101 93.864372 -6.818844
v -23.332003 93.864372 -4.951406
v -20.736298 93.864372 -3.563707
v -17.919741 93.864372 -2.709077
v -14.990571 93.864372 -2.420363
v -12.061357 93.864372 -2.708656
v -9.244677 93.864372 -3.562881
v -6.648772 93.864372 -4.950208
v -4.373408 93.864372 -6.817318
v -2.506025 93.864372 -9.092462
v -1.118389 93.864372 -11.688201
v -0.263826 93.864372 -14.504784
v 0.024817 93.864372 -17.433962
v -0.263547 93.864372 -20.363167
v -1.117838 93.864372 -23.179829
v -2.505227 93.864372 -25.775703
v -4.372391 93.864372 -28.051023
v -6.647582 93.864372 -29.918356
v -9.243351 93.864372 -31.305929
v -12.059950 93.864372 -32.160423
v -14.989133 93.864372 -32.448997
v -17.918329 93.864372 -32.160561
v -20.734970 93.864372 -31.306202
v -23.330805 93.864372 -29.918753
v -25.606083 93.864372 -28.051533
v -27.473360 93.864372 -25.776297
v -28.860868 93.864372 -23.180489
v -29.715298 93.864372 -20.363869
v -0.419757 94.545807 -17.434679
v -22.163202 94.545807 -29.988203
v -14.915554 115.045692 -17.434679
v -22.163454 94.545807 -4.881155

vt 0.500000 0.391827
vt 0.833333 0.391826
vt 0.999774 1.000000
vt 0.166665 0.391827
vt 0.000000 0.500000
vt 0.009608 0.402453
vt 0.038061 0.308656
vt 0.084268 0.222211
vt 0.146451 0.146442
vt 0.222221 0.084261
vt 0.308667 0.038057
vt 0.402465 0.009605
vt 0.500012 0.000000
vt 0.597558 0.009610
vt 0.691355 0.038066
vt 0.777799 0.084274
vt 0.853566 0.146459
vt 0.915746 0.222231
vt 0.961948 0.308678
vt 0.990397 0.402477
vt 1.000000 0.500024
vt 0.990388 0.597570
vt 0.961929 0.691367
vt 0.915719 0.777809
vt 0.853532 0.853575
vt 0.777759 0.915752
vt 0.691311 0.961952
vt 0.597511 0.990399
vt 0.499964 1.000000
vt 0.402418 0.990385
vt 0.308622 0.961925
vt 0.222181 0.915712
vt 0.146417 0.853524
vt 0.084241 0.777749
vt 0.038043 0.691300
vt 0.009598 0.597500
vt 0.009598 0.402500
vt 0.038043 0.308700
vt 0.084241 0.222251
vt 0.146417 0.146476
vt 0.222181 0.084288
vt 0.308622 0.038075
vt 0.402418 0.009615
vt 0.499964 0.000000
vt 0.597511 0.009601
vt 0.691311 0.038048
vt 0.777759 0.084248
vt 0.853532 0.146425
vt 0.915719 0.222191
vt 0.961929 0.308633
vt 0.990388 0.402430
vt 1.000000 0.499976
vt 0.990397 0.597523
vt 0.961948 0.691322
vt 0.915746 0.777769
vt 0.853566 0.853541
vt 0.777799 0.915726
vt 0.691355 0.961934
vt 0.597558 0.990390
vt 0.500012 1.000000
vt 0.402465 0.990395
vt 0.308667 0.961943
vt 0.222221 0.915739
vt 0.146451 0.853558
vt 0.084268 0.777789
vt 0.038061 0.691344
vt 0.009608 0.597547
vt 0.000000 1.000000
vt 0.000000 0.000000
vt 0.031250 0.000000
vt 0.031250 1.000000
vt 0.062500 0.000000
vt 0.062500 1.000000
vt 0.093750 0.000000
vt 0.093750 1.000000
vt 0.125000 0.000000
vt 0.125000 1.000000
vt 0.156250 0.000000
vt 0.156250 1.000000
vt 0.187500 0.000000
vt 0.187500 1.000000
vt 0.218750 0.000000
vt 0.218750 1.000000
vt 0.250000 0.000000
vt 0.250000 1.000000
vt 0.281250 0.000000
vt 0.281250 1.000000
vt 0.312500 0.000000
vt 0.312500 1.000000
vt 0.343750 0.000000
vt 0.343750 1.000000
vt 0.375000 0.000000
vt 0.375000 1.000000
vt 0.406250 0.000000
vt 0.406250 1.000000
vt 0.437500 0.000000
vt 0.437500 1.000000
vt 0.468750 0.000000
vt 0.468750 1.000000
vt 0.500000 0.000000
vt 0.500000 1.000000
vt 0.531250 0.000000
vt 0.531250 1.000000
vt 0.562500 0.000000
vt 0.562500 1.000000
vt 0.593750 0.000000
vt 0.593750 1.000000
vt 0.625000 0.000000
vt 0.625000 1.000000
vt 0.656250 0.000000
vt 0.656250 1.000000
vt 0.687500 0.000000
vt 0.687500 1.000000
vt 0.718750 0.000000
vt 0.718750 1.000000
vt 0.750000 0.000000
vt 0.750000 1.000000
vt 0.781250 0.000000
vt 0.781250 1.000000
vt 0.812500 0.000000
vt 0.812500 1.000000
vt 0.843750 0.000000
vt 0.843750 1.000000
vt 0.875000 0.000000
vt 0.875000 1.000000
vt 0.906250 0.000000
vt 0.906250 1.000000
vt 0.937500 0.000000
vt 0.937500 1.000000
vt 0.968750 0.000000
vt 0.968750 1.000000
vt 1.000000 0.000000
vt 1.000000 1.000000

vn 0.471402 -0.333336 0.816497
vn 0.471399 -0.333334 -0.816500
vn 0.000000 1.000000 -0.000000
vn 0.471402 -0.333336 0.816497
vn -0.942810 -0.333332 0.000010
vn 0.000000 1.000000 -0.000000
vn 0.471402 -0.333336 0.816497
vn -0.942810 -0.333332 0.000010
vn 0.471399 -0.333334 -0.816500
vn -0.942810 -0.333332 0.000010
vn 0.471399 -0.333334 -0.816500
vn 0.000000 1.000000 -0.000000
vn 0.000000 -1.000000 0.000000
vn -1.000000 0.000000 -0.000024
vn 0.000000 -1.000000 0.000000
vn -0.980785 0.000000 -0.195093
vn 0.000000 -1.000000 0.000000
vn -0.923877 0.000000 -0.382689
vn 0.000000 -1.000000 0.000000
vn -0.831465 0.000000 -0.555577
vn 0.000000 -1.000000 0.000000
vn -0.707099 0.000000 -0.707115
vn 0.000000 -1.000000 0.000000
vn -0.555558 0.000000 -0.831478
vn 0.000000 -1.000000 0.000000
vn -0.382667 0.000000 -0.923886
vn 0.000000 -1.000000 0.000000
vn -0.195070 0.000000 -0.980789
vn 0.000000 -1.000000 0.000000
vn 0.000024 0.000000 -1.000000
vn 0.000000 -1.000000 0.000000
vn 0.195117 0.000000 -0.980780
vn 0.000000 -1.000000 0.000000
vn 0.382711 0.000000 -0.923868
vn 0.000000 -1.000000 0.000000
vn 0.555598 0.000000 -0.831451
vn 0.000000 -1.000000 0.000000
vn 0.707133 0.000000 -0.707081
vn 0.000000 -1.000000 0.000000
vn 0.831491 0.000000 -0.555538
vn 0.000000 -1.000000 0.000000
vn 0.923896 0.000000 -0.382645
vn 0.000000 -1.000000 0.000000
vn 0.980794 0.000000 -0.195046
vn 0.000000 -1.000000 0.000000
vn 1.000000 0.000000 0.000048
vn 0.000000 -1.000000 0.000000
vn 0.980775 0.000000 0.195140
vn 0.000000 -1.000000 0.000000
vn 0.923859 0.000000 0.382733
vn 0.000000 -1.000000 0.000000
vn 0.831438 0.000000 0.555618
vn 0.000000 -1.000000 0.000000
vn 0.707065 0.000000 0.707149
vn 0.000000 -1.000000 0.000000
vn 0.555518 0.000000 0.831504
vn 0.000000 -1.000000 0.000000
vn 0.382623 0.000000 0.923905
vn 0.000000 -1.000000 0.000000
vn 0.195023 0.000000 0.980799
vn 0.000000 -1.000000 0.000000
vn -0.000072 0.000000 1.000000
vn 0.000000 -1.000000 0.000000
vn -0.195164 0.000000 0.980771
vn 0.000000 -1.000000 0.000000
vn -0.382756 0.000000 0.923850
vn 0.000000 -1.000000 0.000000
vn -0.555637 0.000000 0.831425
vn 0.000000 -1.000000 0.000000
vn -0.707166 0.000000 0.707048
vn 0.000000 -1.000000 0.000000
vn -0.831518 0.000000 0.555498
vn 0.000000 -1.000000 0.000000
vn -0.923914 0.000000 0.382600
vn 0.000000 -1.000000 0.000000
vn -0.980799 0.000000 0.195023
vn 0.000000 1.000000 -0.000000
vn -1.000000 0.000000 -0.000024
vn 0.000000 1.000000 -0.000000
vn -0.980799 0.000000 0.195023
vn 0.000000 1.000000 -0.000000
vn -0.923914 0.000000 0.382600
vn 0.000000 1.000000 -0.000000
vn -0.831518 0.000000 0.555498
vn 0.000000 1.000000 -0.000000
vn -0.707166 0.000000 0.707048
vn 0.000000 1.000000 -0.000000
vn -0.555637 0.000000 0.831425
vn 0.000000 1.000000 -0.000000
vn -0.382756 0.000000 0.923850
vn 0.000000 1.000000 -0.000000
vn -0.195164 0.000000 0.980771
vn 0.000000 1.000000 -0.000000
vn -0.000072 0.000000 1.000000
vn 0.000000 1.000000 -0.000000
vn 0.195023 0.000000 0.980799
vn 0.000000 1.000000 -0.000000
vn 0.382623 0.000000 0.923905
vn 0.000000 1.000000 -0.000000
vn 0.555518 0.000000 0.831504
vn 0.000000 1.000000 -0.000000
vn 0.707065 0.000000 0.707149
vn 0.000000 1.000000 -0.000000
vn 0.831438 0.000000 0.555618
vn 0.000000 1.000000 -0.000000
vn 0.923859 0.000000 0.382733
vn 0.000000 1.000000 -0.000000
vn 0.980775 0.000000 0.195140
vn 0.000000 1.000000 -0.000000
vn 1.000000 0.000000 0.000048
vn 0.000000 1.000000 -0.000000
vn 0.980794 0.000000 -0.195046
vn 0.000000 1.000000 -0.000000
vn 0.923896 0.000000 -0.382645
vn 0.000000 1.000000 -0.000000
vn 0.831491 0.000000 -0.555538
vn 0.000000 1.000000 -0.000000
vn 0.707133 0.000000 -0.707081
vn 0.000000 1.000000 -0.000000
vn 0.555598 0.000000 -0.831451
vn 0.000000 1.000000 -0.000000
vn 0.382711 0.000000 -0.923868
vn 0.000000 1.000000 -0.000000
vn 0.195117 0.000000 -0.980780
vn 0.000000 1.000000 -0.000000
vn 0.000024 0.000000 -1.000000
vn 0.000000 1.000000 -0.000000
vn -0.195070 0.000000 -0.980789
vn 0.000000 1.000000 -0.000000
vn -0.382667 0.000000 -0.923886
vn 0.000000 1.000000 -0.000000
vn -0.555558 0.000000 -0.831478
vn 0.000000 1.000000 -0.000000
vn -0.707099 0.000000 -0.707115
vn 0.000000 1.000000 -0.000000
vn -0.831465 0.000000 -0.555577
vn 0.000000 1.000000 -0.000000
vn -0.923877 0.000000 -0.382689
vn 0.000000 1.000000 -0.000000
vn -0.980785 0.000000 -0.195093
vn 0.000000 -1.000000 0.000000
vn -1.000000 0.000000 -0.000024
vn 0.000000 -1.000000 0.000000
vn -0.980785 0.000000 -0.195093
vn 0.000000 -1.000000 0.000000
vn -0.923877 0.000000 -0.382689
vn 0.000000 -1.000000 0.000000
vn -0.831465 0.000000 -0.555577
vn 0.000000 -1.000000 0.000000
vn -0.707098 0.000000 -0.707115
vn 0.000000 -1.000000 0.000000
vn -0.555558 0.000000 -0.831478
vn 0.000000 -1.000000 0.000000
vn -0.382667 0.000000 -0.923886
vn 0.000000 -1.000000 0.000000
vn -0.195070 0.000000 -0.980789
vn 0.000000 -1.000000 0.000000
vn 0.000024 0.000000 -1.000000
vn 0.000000 -1.000000 0.000000
vn 0.195117 0.000000 -0.980780
vn 0.000000 -1.000000 0.000000
vn 0.382711 0.000000 -0.923868
vn 0.000000 -1.000000 0.000000
vn 0.555598 0.000000 -0.831451
vn 0.000000 -1.000000 0.000000
vn 0.707133 0.000000 -0.707081
vn 0.000000 -1.000000 0.000000
vn 0.831491 0.000000 -0.555538
vn 0.000000 -1.000000 0.000000
vn 0.923896 0.000000 -0.382645
vn 0.000000 -1.000000 0.000000
vn 0.980794 0.000000 -0.195046
vn 0.000000 -1.000000 0.000000
vn 1.000000 0.000000 0.000048
vn 0.000000 -1.000000 0.000000
vn 0.980775 0.000000 0.195140
vn 0.000000 -1.000000 0.000000
vn 0.923859 0.000000 0.382733
vn 0.000000 -1.000000 0.000000
vn 0.831438 0.000000 0.555617
vn 0.000000 -1.000000 0.000000
vn 0.707065 0.000000 0.707149
vn 0.000000 -1.000000 0.000000
vn 0.555518 0.000000 0.831504
vn 0.000000 -1.000000 0.000000
vn 0.382623 0.000000 0.923905
vn 0.000000 -1.000000 0.000000
vn 0.195023 0.000000 0.980799
vn 0.000000 -1.000000 0.000000
vn -0.000072 0.000000 1.000000
vn 0.000000 -1.000000 0.000000
vn -0.195164 0.000000 0.980771
vn 0.000000 -1.000000 0.000000
vn -0.382756 0.000000 0.923850
vn 0.000000 -1.000000 0.000000
vn -0.555638 0.000000 0.831425
vn 0.000000 -1.000000 0.000000
vn -0.707166 0.000000 0.707047
vn 0.000000 -1.000000 0.000000
vn -0.831518 0.000000 0.555498
vn 0.000000 -1.000000 0.000000
vn -0.923914 0.000000 0.382600
vn 0.000000 -1.000000 0.000000
vn -0.980799 0.000000 0.195023
vn 0.000000 1.000000 -0.000000
vn -1.000000 0.000000 -0.000024
vn 0.000000 1.000000 -0.000000
vn -0.980799 0.000000 0.195023
vn 0.000000 1.000000 -0.000000
vn -0.923914 0.000000 0.382600
vn 0.000000 1.000000 -0.000000
vn -0.831518 0.000000 0.555498
vn 0.000000 1.000000 -0.000000
vn -0.707166 0.000000 0.707047
vn 0.000000 1.000000 -0.000000
vn -0.555638 0.000000 0.831425
vn 0.000000 1.000000 -0.000000
vn -0.382756 0.000000 0.923850
vn 0.000000 1.000000 -0.000000
vn -0.195164 0.000000 0.980771
vn 0.000000 1.000000 -0.000000
vn -0.000072 0.000000 1.000000
vn 0.000000 1.000000 -0.000000
vn 0.195023 0.000000 0.980799
vn 0.000000 1.000000 -0.000000
vn 0.382623 0.000000 0.923905
vn 0.000000 1.000000 -0.000000
vn 0.555518 0.000000 0.831504
vn 0.000000 1.000000 -0.000000
vn 0.707065 0.000000 0.707149
vn 0.000000 1.000000 -0.000000
vn 0.831438 0.000000 0.555617
vn 0.000000 1.000000 -0.000000
vn 0.923859 0.000000 0.382733
vn 0.000000 1.000000 -0.000000
vn 0.980775 0.000000 0.195140
vn 0.000000 1.000000 -0.000000
vn 1.000000 0.000000 0.000048
vn 0.000000 1.000000 -0.000000
vn 0.980794 0.000000 -0.195046
vn 0.000000 1.000000 -0.000000
vn 0.923896 0.000000 -0.382645
vn 0.000000 1.000000 -0.000000
vn 0.831491 0.000000 -0.555538
vn 0.000000 1.000000 -0.000000
vn 0.707133 0.000000 -0.707081
vn 0.000000 1.000000 -0.000000
vn 0.555598 0.000000 -0.831451
vn 0.000000 1.000000 -0.000000
vn 0.382711 0.000000 -0.923868
vn 0.000000 1.000000 -0.000000
vn 0.195117 0.000000 -0.980780
vn 0.000000 1.000000 -0.000000
vn 0.000024 0.000000 -1.000000
vn 0.000000 1.000000 -0.000000
vn -0.195070 0.000000 -0.980789
vn 0.000000 1.000000 -0.000000
vn -0.382667 0.000000 -0.923886
vn 0.000000 1.000000 -0.000000
vn -0.555558 0.000000 -0.831478
vn 0.000000 1.000000 -0.000000
vn -0.707098 0.000000 -0.707115
vn 0.000000 1.000000 -0.000000
vn -0.831465 0.000000 -0.555577
vn 0.000000 1.000000 -0.000000
vn -0.923877 0.000000 -0.382689
vn 0.000000 1.000000 -0.000000
vn -0.980785 0.000000 -0.195093
vn 0.471402 0.333336 -0.816497
vn 0.471399 0.333334 0.816500
vn 0.000000 -1.000000 0.000000
vn 0.471402 0.333336 -0.816497
vn -0.942810 0.333332 -0.000010
vn 0.000000 -1.000000 0.000000
vn 0.471402 0.333336 -0.816497
vn -0.942810 0.333332 -0.000010
vn 0.471399 0.333334 0.816500
vn -0.942810 0.333332 -0.000010
vn 0.471399 0.333334 0.816500
vn 0.000000 -1.000000 0.000000

f 1/1/1 2/2/4 3/3/7
f 2/2/5 4/4/10 3/3/8
f 4/4/11 1/1/2 3/3/9
f 2/2/6 1/1/3 4/4/12
f 5/5/13 6/6/15 7/7/17 8/8/19 9/9/21 10/10/23 11/11/25 12/12/27 13/13/29 14/14/31 15/15/33 16/16/35 17/17/37 18/18/39 19/19/41 20/20/43 21/21/45 22/22/47 23/23/49 24/24/51 25/25/53 26/26/55 27/27/57 28/28/59 29/29/61 30/30/63 31/31/65 32/32/67 33/33/69 34/34/71 35/35/73 36/36/75
f 37/5/77 38/37/79 39/38/81 40/39/83 41/40/85 42/41/87 43/42/89 44/43/91 45/44/93 46/45/95 47/46/97 48/47/99 49/48/101 50/49/103 51/50/105 52/51/107 53/52/109 54/53/111 55/54/113 56/55/115 57/56/117 58/57/119 59/58/121 60/59/123 61/60/125 62/61/127 63/62/129 64/63/131 65/64/133 66/65/135 67/66/137 68/67/139
f 37/68/78 5/69/14 36/70/76 38/71/80
f 38/71/80 36/70/76 35/72/74 39/73/82
f 39/73/82 35/72/74 34/74/72 40/75/84
f 40/75/84 34/74/72 33/76/70 41/77/86
f 41/77/86 33/76/70 32/78/68 42/79/88
f 42/79/88 32/78/68 31/80/66 43/81/90
f 43/81/90 31/80/66 30/82/64 44/83/92
f 44/83/92 30/82/64 29/84/62 45/85/94
f 45/85/94 29/84/62 28/86/60 46/87/96
f 46/87/96 28/86/60 27/88/58 47/89/98
f 47/89/98 27/88/58 26/90/56 48/91/100
f 48/91/100 26/90/56 25/92/54 49/93/102
f 49/93/102 25/92/54 24/94/52 50/95/104
f 50/95/104 24/94/52 23/96/50 51/97/106
f 51/97/106 23/96/50 22/98/48 52/99/108
f 52/99/108 22/98/48 21/100/46 53/101/110
f 53/101/110 21/100/46 20/102/44 54/103/112
f 54/103/112 20/102/44 19/104/42 55/105/114
f 55/105/114 19/104/42 18/106/40 56/107/116
f 56/107/116 18/106/40 17/108/38 57/109/118
f 57/109/118 17/108/38 16/110/36 58/111/120
f 58/111/120 16/110/36 15/112/34 59/113/122
f 59/113/122 15/112/34 14/114/32 60/115/124
f 60/115/124 14/114/32 13/116/30 61/117/126
f 61/117/126 13/116/30 12/118/28 62/119/128
f 62/119/128 12/118/28 11/120/26 63/121/130
f 63/121/130 11/120/26 10/122/24 64/123/132
f 64/123/132 10/122/24 9/124/22 65/125/134
f 65/125/134 9/124/22 8/126/20 66/127/136
f 66/127/136 8/126/20 7/128/18 67/129/138
f 67/129/138 7/128/18 6/130/16 68/131/140
f 68/131/140 6/130/16 5/132/14 37/133/78
f 69/5/141 70/6/143 71/7/145 72/8/147 73/9/149 74/10/151 75/11/153 76/12/155 77/13/157 78/14/159 79/15/161 80/16/163 81/17/165 82/18/167 83/19/169 84/20/171 85/21/173 86/22/175 87/23/177 88/24/179 89/25/181 90/26/183 91/27/185 92/28/187 93/29/189 94/30/191 95/31/193 96/32/195 97/33/197 98/34/199 99/35/201 100/36/203
f 101/5/205 102/37/207 103/38/209 104/39/211 105/40/213 106/41/215 107/42/217 108/43/219 109/44/221 110/45/223 111/46/225 112/47/227 113/48/229 114/49/231 115/50/233 116/51/235 117/52/237 118/53/239 119/54/241 120/55/243 121/56/245 122/57/247 123/58/249 124/59/251 125/60/253 126/61/255 127/62/257 128/63/259 129/64/261 130/65/263 131/66/265 132/67/267
f 101/68/206 69/69/142 100/70/204 102/71/208
f 102/71/208 100/70/204 99/72/202 103/73/210
f 103/73/210 99/72/202 98/74/200 104/75/212
f 104/75/212 98/74/200 97/76/198 105/77/214
f 105/77/214 97/76/198 96/78/196 106/79/216
f 106/79/216 96/78/196 95/80/194 107/81/218
f 107/81/218 95/80/194 94/82/192 108/83/220
f 108/83/220 94/82/192 93/84/190 109/85/222
f 109/85/222 93/84/190 92/86/188 110/87/224
f 110/87/224 92/86/188 91/88/186 111/89/226
f 111/89/226 91/88/186 90/90/184 112/91/228
f 112/91/228 90/90/184 89/92/182 113/93/230
f 113/93/230 89/92/182 88/94/180 114/95/232
f 114/95/232 88/94/180 87/96/178 115/97/234
f 115/97/234 87/96/178 86/98/176 116/99/236
f 116/99/236 86/98/176 85/100/174 117/101/238
f 117/101/238 85/100/174 84/102/172 118/103/240
f 118/103/240 84/102/172 83/104/170 119/105/242
f 119/105/242 83/104/170 82/106/168 120/107/244
f 120/107/244 82/106/168 81/108/166 121/109/246
f 121/109/246 81/108/166 80/110/164 122/111/248
f 122/111/248 80/110/164 79/112/162 123/113/250
f 123/113/250 79/112/162 78/114/160 124/115/252
f 124/115/252 78/114/160 77/116/158 125/117/254
f 125/117/254 77/116/158 76/118/156 126/119/256
f 126/119/256 76/118/156 75/120/154 127/121/258
f 127/121/258 75/120/154 74/122/152 128/123/260
f 128/123/260 74/122/152 73/124/150 129/125/262
f 129/125/262 73/124/150 72/126/148 130/127/264
f 130/127/264 72/126/148 71/128/146 131/129/266
f 131/129/266 71/128/146 70/130/144 132/131/268
f 132/131/268 70/130/144 69/132/142 101/133/206
f 133/1/269 134/2/272 135/3/275
f 134/2/273 136/4/278 135/3/276
f 136/4/279 133/1/270 135/3/277
f 134/2/274 133/1/271 136/4/280

# End of File
