# Obj file Generated by Strata Design 3D CX(TM): http://www.strata.com
mtllib Photon, Nate 2 Fatter.mtl
v 37.216045 -16.562494 31.416948
v -106.739471 -16.562494 -194.931198
v -26.847227 -16.562494 59.939743
v 9.188363 -16.562494 43.895672
v 21.515409 -16.562494 17.658058
v -186.406708 -16.562494 -64.429070
v -7.703757 -16.562494 68.267113
v 8.732024 -16.562494 39.799519
v 4.286444 -16.562494 76.146896
v 257.216217 -16.562494 -13.201777
v -9.094209 -16.562494 7.309327
v -1.567591 -16.562494 46.030457
v 34.945019 -16.562494 71.420845
v 184.789581 -16.562492 -228.543961
v -36.859768 -16.562494 21.142574
v 3.530423 -16.562494 49.424103
v -41.396545 -16.562494 40.793598
v 59.187336 -16.562492 360.661011
v 45.181717 -16.562494 27.080973
v -3.518553 -16.562494 34.794323
v -24.950939 1.656250 -18.317308
v -13.784163 1.656250 -23.377472
v -1.839103 1.656249 -26.163876
v 10.420031 1.656248 -26.566374
v 22.522135 1.656248 -24.569498
v 34.002129 1.656248 -20.249989
v 44.418839 1.656247 -13.773842
v 53.371967 1.656247 -5.389934
v 60.517445 1.656247 4.579554
v 65.580673 1.656247 15.751487
v 68.367073 1.656247 27.696543
v 68.769577 1.656248 39.955677
v 66.772697 1.656248 52.057781
v 62.453186 1.656248 63.537781
v 55.977043 1.656249 73.954491
v 47.593132 1.656250 82.907623
v 37.623642 1.656250 90.053093
v 26.451715 1.656250 95.116318
v 14.506654 1.656251 97.902725
v 2.247512 1.656252 98.305222
v -9.854581 1.656252 96.308350
v -21.334566 1.656252 91.988846
v -31.751282 1.656253 85.512695
v -40.704422 1.656253 77.128784
v -47.849895 1.656253 67.159294
v -52.913124 1.656253 55.987354
v -55.699524 1.656253 44.042294
v -56.102024 1.656252 31.783180
v -54.105148 1.656252 19.681076
v -49.785641 1.656252 8.201076
v -43.309490 1.656251 -2.215643
v -34.925579 1.656250 -11.168777
v -42.574631 -44.718750 -47.294819
v -58.006691 -44.718750 -36.237350
v -70.992073 -44.718750 -22.375648
v -81.023674 -44.718750 -6.246985
v -87.715965 -44.718750 11.528842
v -90.811783 -44.718750 30.268707
v -90.192139 -44.718750 49.252457
v -85.880867 -44.718750 67.750557
v -78.043625 -44.718750 85.052139
v -66.981606 -44.718750 100.492294
v -53.119911 -44.718750 113.477676
v -36.991253 -44.718750 123.509277
v -19.215416 -44.718750 130.201569
v -0.475542 -44.718750 133.297394
v 18.508196 -44.718750 132.677750
v 37.006306 -44.718750 128.366470
v 54.307884 -44.718750 120.529228
v 69.748032 -44.718750 109.467216
v 82.733429 -44.718750 95.605515
v 92.765022 -44.718750 79.476837
v 99.457314 -44.718750 61.701035
v 102.553131 -44.718750 42.961178
v 101.933495 -44.718750 23.977421
v 97.622215 -44.718750 5.479307
v 89.784966 -44.718750 -11.822268
v 78.722946 -44.718750 -27.262438
v 64.861244 -44.718750 -40.247829
v 48.732613 -44.718750 -50.279411
v 30.956785 -44.718750 -56.971706
v 12.216905 -44.718750 -60.067524
v -6.766853 -44.718750 -59.447884
v -25.264961 -44.718750 -55.136604
v -7.703740 -16.562494 13.103349
v -182.754333 -16.562494 152.125610
v 21.515409 -16.562494 63.712414
v 5.079638 -16.562494 35.244816
v -23.354635 -16.562494 54.174973
v 133.203812 -16.562494 213.734848
v 23.922958 -16.562494 19.825808
v -2.670686 -16.562494 39.147213
v -90.223335 -10.034092 108.096474
v -77.908340 -10.034092 121.210342
v -64.297714 -10.034092 132.310852
v -49.582943 -10.034092 141.320816
v -33.955521 -10.034092 148.163132
v -17.606966 -10.034092 152.760620
v -0.728775 -10.034092 155.036163
v 16.487556 -10.034092 154.912598
v 33.850521 -10.034092 152.312775
v 51.168621 -10.034092 147.159546
v 57.141209 -10.034092 144.639694
v 73.852928 -10.034092 134.991180
v 79.021484 -10.034092 131.078690
v 92.108971 -10.034092 119.128799
v 103.100243 -10.034092 105.624596
v 111.948204 -10.034092 90.834099
v 118.605743 -10.034092 75.025352
v 123.025742 -10.034092 58.466362
v 125.161110 -10.034092 41.425182
v 124.964714 -10.034092 24.169842
v 122.389465 -10.034092 6.968351
v 117.388245 -10.034092 -9.911241
v 114.868385 -10.034092 -15.883830
v 103.611786 -10.034092 -35.380836
v 99.699303 -10.034092 -40.549397
v 88.067711 -10.034092 -53.178032
v 74.765816 -10.034092 -63.781612
v 60.104687 -10.034092 -72.303307
v 44.395390 -10.034092 -78.686333
v 27.948986 -10.034092 -82.873863
v 11.076555 -10.034092 -84.809090
v -5.910830 -10.034092 -84.435219
v -22.702118 -10.034092 -81.695419
v -38.986225 -10.034092 -76.532890
v -44.958817 -10.034092 -74.013039
v -64.455826 -10.034092 -62.756439
v -69.624374 -10.034092 -58.843948
v -82.342384 -10.034092 -46.816502
v -93.094582 -10.034092 -33.398827
v -101.797478 -10.034092 -18.819599
v -108.367584 -10.034092 -3.307472
v -112.721420 -10.034092 12.908891
v -114.775482 -10.034092 29.600849
v -114.446289 -10.034092 46.539715
v -111.650360 -10.034092 63.496857
v -106.304192 -10.034092 80.243599
v -103.784332 -10.034092 86.216194
v -94.135818 -10.034092 102.927910
v -87.172623 -10.034092 98.907707
v -96.821136 -10.034092 82.195992
v -99.340973 -10.034092 76.223389
v -104.084892 -10.034092 60.408752
v -106.566826 -10.034092 44.532036
v -106.834488 -10.034092 28.771364
v -104.935600 -10.034092 13.304849
v -100.917908 -10.034092 -1.689375
v -94.829132 -10.034092 -16.033199
v -86.716988 -10.034092 -29.548508
v -76.629219 -10.034092 -42.057178
v -64.613541 -10.034092 -53.381088
v -59.444984 -10.034092 -57.293579
v -42.733261 -10.034092 -66.942093
v -36.760670 -10.034092 -69.461945
v -20.946035 -10.034092 -74.205864
v -5.069323 -10.034092 -76.687798
v 10.691355 -10.034092 -76.955467
v 26.157860 -10.034092 -75.056580
v 41.152088 -10.034092 -71.038895
v 55.495918 -10.034092 -64.950111
v 69.011223 -10.034092 -56.837967
v 81.519897 -10.034092 -46.750191
v 92.843811 -10.034092 -34.734520
v 96.756294 -10.034092 -29.565962
v 106.404808 -10.034092 -12.854241
v 108.924667 -10.034092 -6.881651
v 113.668587 -10.034092 8.932990
v 116.150520 -10.034092 24.809704
v 116.418182 -10.034092 40.570374
v 114.519302 -10.034092 56.036884
v 110.501610 -10.034092 71.031113
v 104.412834 -10.034092 85.374939
v 96.300682 -10.034092 98.890251
v 86.212906 -10.034092 111.398926
v 74.197227 -10.034092 122.722824
v 69.028679 -10.034092 126.635323
v 52.316956 -10.034092 136.283844
v 46.344360 -10.034092 138.803680
v 30.529728 -10.034092 143.547607
v 14.653014 -10.034092 146.029541
v -1.107657 -10.034092 146.297211
v -16.574162 -10.034092 144.398315
v -31.568390 -10.034092 140.380630
v -45.912228 -10.034092 134.291855
v -59.427532 -10.034092 126.179710
v -71.936203 -10.034092 116.091934
v -83.260117 -10.034092 104.076256

vt 1.000000 0.500000
vt 0.990401 0.597498
vt 0.961958 0.691297
vt 0.915761 0.777745
vt 0.853587 0.853519
vt 0.777825 0.915708
vt 0.691386 0.961921
vt 0.597592 0.990383
vt 0.500048 0.999999
vt 0.402502 0.990401
vt 0.308703 0.961958
vt 0.222255 0.915761
vt 0.146481 0.853587
vt 0.084292 0.777825
vt 0.038079 0.691386
vt 0.009617 0.597592
vt 0.000001 0.500048
vt 0.009599 0.402502
vt 0.038042 0.308703
vt 0.084239 0.222255
vt 0.146413 0.146481
vt 0.222175 0.084292
vt 0.308614 0.038079
vt 0.402408 0.009617
vt 0.499952 0.000001
vt 0.597498 0.009599
vt 0.691297 0.038042
vt 0.777745 0.084239
vt 0.853519 0.146413
vt 0.915708 0.222175
vt 0.961921 0.308614
vt 0.990383 0.402408
vt 0.438127 0.996656
vt 0.365274 0.979567
vt 0.296980 0.953624
vt 0.233919 0.919356
vt 0.176770 0.877292
vt 0.126206 0.827961
vt 0.082906 0.771894
vt 0.047545 0.709618
vt 0.020799 0.641665
vt 0.003344 0.568562
vt 0.000000 0.541806
vt 0.000000 0.461538
vt 0.003344 0.434783
vt 0.019172 0.362784
vt 0.044959 0.295104
vt 0.079837 0.232470
vt 0.122939 0.175609
vt 0.173396 0.125248
vt 0.230343 0.082113
vt 0.292910 0.046933
vt 0.360231 0.020435
vt 0.431438 0.003344
vt 0.458194 0.000000
vt 0.551839 0.000000
vt 0.578595 0.003344
vt 0.648279 0.018980
vt 0.714141 0.044844
vt 0.775331 0.079935
vt 0.830997 0.123249
vt 0.880286 0.173785
vt 0.922349 0.230540
vt 0.956332 0.292511
vt 0.981385 0.358696
vt 0.996656 0.428094
vt 1.000000 0.454849
vt 1.000000 0.548495
vt 0.996656 0.575251
vt 0.979780 0.646080
vt 0.953808 0.712718
vt 0.919389 0.774390
vt 0.877174 0.830320
vt 0.827813 0.879730
vt 0.771955 0.921845
vt 0.710252 0.955889
vt 0.643352 0.981084
vt 0.571906 0.996656
vt 0.545150 1.000000
vt 0.464883 1.000000
vt 0.464883 0.966555
vt 0.545150 0.966555
vt 0.571906 0.963211
vt 0.638742 0.947409
vt 0.701096 0.923329
vt 0.758428 0.891514
vt 0.810194 0.852507
vt 0.855851 0.806849
vt 0.894859 0.755083
vt 0.926674 0.697752
vt 0.950753 0.635397
vt 0.966555 0.568562
vt 0.969900 0.541806
vt 0.969900 0.461538
vt 0.966555 0.434783
vt 0.950753 0.367947
vt 0.926674 0.305593
vt 0.894859 0.248261
vt 0.855851 0.196495
vt 0.810194 0.150838
vt 0.758428 0.111830
vt 0.701096 0.080015
vt 0.638742 0.055936
vt 0.571906 0.040134
vt 0.545150 0.036789
vt 0.464883 0.036789
vt 0.438127 0.040134
vt 0.371292 0.055936
vt 0.308937 0.080015
vt 0.251606 0.111830
vt 0.199840 0.150838
vt 0.154182 0.196495
vt 0.115175 0.248261
vt 0.083360 0.305593
vt 0.059280 0.367947
vt 0.043478 0.434783
vt 0.040134 0.461538
vt 0.040134 0.541806
vt 0.043478 0.568562
vt 0.059280 0.635397
vt 0.083360 0.697752
vt 0.115175 0.755083
vt 0.154182 0.806849
vt 0.199840 0.852507
vt 0.251606 0.891514
vt 0.308937 0.923329
vt 0.371292 0.947409
vt 0.438127 0.963211

vn -0.000000 1.000000 0.000000
vn -0.000000 1.000000 0.000000
vn -0.000000 1.000000 0.000000
vn -0.000000 1.000000 0.000000
vn -0.000000 1.000000 0.000000
vn -0.000000 1.000000 0.000000
vn -0.000000 1.000000 0.000000
vn -0.000000 1.000000 0.000000
vn -0.000000 1.000000 0.000000
vn -0.000000 1.000000 0.000000
vn -0.000000 1.000000 0.000000
vn -0.000000 1.000000 0.000000
vn -0.000000 1.000000 0.000000
vn -0.000000 1.000000 0.000000
vn -0.000000 1.000000 0.000000
vn -0.000000 1.000000 0.000000
vn 0.000000 1.000000 -0.000000
vn 0.000000 1.000000 -0.000000
vn 0.000000 1.000000 -0.000000
vn 0.000000 1.000000 -0.000000
vn -0.000000 -1.000000 0.000000
vn -0.000000 -1.000000 0.000000
vn -0.000000 -1.000000 0.000000
vn -0.000000 -1.000000 0.000000
vn -0.000000 -1.000000 0.000000
vn -0.000000 -1.000000 0.000000
vn -0.000000 -1.000000 0.000000
vn -0.000000 -1.000000 0.000000
vn -0.000000 -1.000000 0.000000
vn -0.000000 -1.000000 0.000000
vn -0.000000 -1.000000 0.000000
vn -0.000000 -1.000000 0.000000
vn -0.000000 -1.000000 0.000000
vn -0.000000 -1.000000 0.000000
vn -0.000000 -1.000000 0.000000
vn -0.000000 -1.000000 0.000000
vn -0.000000 -1.000000 0.000000
vn -0.000000 -1.000000 0.000000
vn -0.000000 -1.000000 0.000000
vn -0.000000 -1.000000 0.000000
vn -0.000000 -1.000000 0.000000
vn -0.000000 -1.000000 0.000000
vn -0.000000 -1.000000 0.000000
vn -0.000000 -1.000000 0.000000
vn -0.000000 -1.000000 0.000000
vn -0.000000 -1.000000 0.000000
vn -0.000000 -1.000000 0.000000
vn -0.000000 -1.000000 0.000000
vn -0.000000 -1.000000 0.000000
vn -0.000000 -1.000000 0.000000
vn -0.000000 -1.000000 0.000000
vn -0.000000 -1.000000 0.000000
vn 0.000000 1.000000 -0.000000
vn 0.000000 1.000000 -0.000000
vn 0.000000 1.000000 -0.000000
vn 0.000000 1.000000 -0.000000
vn 0.000000 1.000000 -0.000000
vn 0.000000 1.000000 -0.000000
vn 0.000000 1.000000 -0.000000
vn 0.000000 1.000000 -0.000000
vn 0.000000 1.000000 -0.000000
vn 0.000000 1.000000 -0.000000
vn 0.000000 1.000000 -0.000000
vn 0.000000 1.000000 -0.000000
vn 0.000000 1.000000 -0.000000
vn 0.000000 1.000000 -0.000000
vn 0.000000 1.000000 -0.000000
vn 0.000000 1.000000 -0.000000
vn 0.000000 1.000000 -0.000000
vn 0.000000 1.000000 -0.000000
vn 0.000000 1.000000 -0.000000
vn 0.000000 1.000000 -0.000000
vn 0.000000 1.000000 -0.000000
vn 0.000000 1.000000 -0.000000
vn 0.000000 1.000000 -0.000000
vn 0.000000 1.000000 -0.000000
vn 0.000000 1.000000 -0.000000
vn 0.000000 1.000000 -0.000000
vn 0.000000 1.000000 -0.000000
vn 0.000000 1.000000 -0.000000
vn 0.000000 1.000000 -0.000000
vn 0.000000 1.000000 -0.000000
vn 0.000000 1.000000 -0.000000
vn 0.000000 1.000000 -0.000000
vn 0.000000 1.000000 -0.000000
vn 0.000000 1.000000 -0.000000
vn 0.000000 1.000000 -0.000000
vn 0.000000 1.000000 -0.000000
vn -0.000000 1.000000 0.000000
vn -0.000000 1.000000 0.000000
vn -0.000000 1.000000 0.000000
vn -0.000000 1.000000 0.000000
vn -0.000000 1.000000 0.000000
vn -0.000000 1.000000 0.000000
vn -0.000000 1.000000 0.000000
vn -0.000000 1.000000 0.000000
vn -0.000000 1.000000 0.000000
vn -0.000000 1.000000 0.000000
vn -0.000000 1.000000 0.000000
vn -0.000000 1.000000 0.000000
vn -0.000000 1.000000 0.000000
vn -0.000000 1.000000 0.000000
vn -0.000000 1.000000 0.000000
vn -0.000000 1.000000 0.000000
vn -0.000000 1.000000 0.000000
vn -0.000000 1.000000 0.000000
vn -0.000000 1.000000 0.000000
vn -0.000000 1.000000 0.000000
vn -0.000000 1.000000 0.000000
vn -0.000000 1.000000 0.000000
vn -0.000000 1.000000 0.000000
vn -0.000000 1.000000 0.000000
vn -0.000000 1.000000 0.000000
vn -0.000000 1.000000 0.000000
vn -0.000000 1.000000 0.000000
vn -0.000000 1.000000 0.000000
vn -0.000000 1.000000 0.000000
vn -0.000000 1.000000 0.000000
vn -0.000000 1.000000 0.000000
vn -0.000000 1.000000 0.000000
vn -0.000000 1.000000 0.000000
vn -0.000000 1.000000 0.000000
vn -0.000000 1.000000 0.000000
vn -0.000000 1.000000 0.000000
vn -0.000000 1.000000 0.000000
vn -0.000000 1.000000 0.000000
vn -0.000000 1.000000 0.000000
vn -0.000000 1.000000 0.000000
vn -0.000000 1.000000 0.000000
vn -0.000000 1.000000 0.000000
vn -0.000000 1.000000 0.000000
vn -0.000000 1.000000 0.000000
vn -0.000000 1.000000 0.000000
vn -0.000000 1.000000 0.000000
vn -0.000000 1.000000 0.000000
vn -0.000000 1.000000 0.000000
vn -0.000000 1.000000 0.000000
vn -0.000000 1.000000 0.000000
vn -0.000000 1.000000 0.000000
vn -0.000000 1.000000 0.000000
vn -0.000000 1.000000 0.000000
vn -0.000000 1.000000 0.000000
vn -0.000000 1.000000 0.000000
vn -0.000000 1.000000 0.000000
vn -0.000000 1.000000 0.000000
vn -0.000000 1.000000 0.000000
vn -0.000000 1.000000 0.000000
vn -0.000000 1.000000 0.000000
vn -0.000000 1.000000 0.000000
vn -0.000000 1.000000 0.000000
vn -0.000000 1.000000 0.000000
vn -0.000000 1.000000 0.000000
vn -0.000000 1.000000 0.000000
vn -0.000000 1.000000 0.000000
vn -0.000000 1.000000 0.000000
vn -0.000000 1.000000 0.000000
vn -0.000000 1.000000 0.000000
vn -0.000000 1.000000 0.000000
vn -0.000000 1.000000 0.000000
vn -0.000000 1.000000 0.000000
vn -0.000000 1.000000 0.000000
vn -0.000000 1.000000 0.000000
vn -0.000000 1.000000 0.000000
vn -0.000000 1.000000 0.000000
vn -0.000000 1.000000 0.000000
vn -0.000000 1.000000 0.000000
vn -0.000000 1.000000 0.000000
vn -0.000000 1.000000 0.000000
vn -0.000000 1.000000 0.000000
vn -0.000000 1.000000 0.000000
vn -0.000000 1.000000 0.000000
vn -0.000000 1.000000 0.000000
vn -0.000000 1.000000 0.000000
vn -0.000000 1.000000 0.000000
vn -0.000000 1.000000 0.000000
vn -0.000000 1.000000 0.000000
vn -0.000000 1.000000 0.000000
vn -0.000000 1.000000 0.000000
vn -0.000000 1.000000 0.000000
vn -0.000000 1.000000 0.000000
vn -0.000000 1.000000 0.000000
vn -0.000000 1.000000 0.000000
vn -0.000000 1.000000 0.000000
vn -0.000000 1.000000 0.000000
vn -0.000000 1.000000 0.000000
vn -0.000000 1.000000 0.000000
vn -0.000000 1.000000 0.000000
vn -0.000000 1.000000 0.000000

f 1//1 2//2 3//3 4//4
f 5//5 6//6 7//7 8//8
f 9//9 10//10 11//11 12//12
f 13//13 14//14 15//15 16//16
f 17//17 18//18 19//19 20//20
f 21/1/21 22/2/22 23/3/23 24/4/24 25/5/25 26/6/26 27/7/27 28/8/28 29/9/29 30/10/30 31/11/31 32/12/32 33/13/33 34/14/34 35/15/35 36/16/36 37/17/37 38/18/38 39/19/39 40/20/40 41/21/41 42/22/42 43/23/43 44/24/44 45/25/45 46/26/46 47/27/47 48/28/48 49/29/49 50/30/50 51/31/51 52/32/52
f 53/1/53 54/2/54 55/3/55 56/4/56 57/5/57 58/6/58 59/7/59 60/8/60 61/9/61 62/10/62 63/11/63 64/12/64 65/13/65 66/14/66 67/15/67 68/16/68 69/17/69 70/18/70 71/19/71 72/20/72 73/21/73 74/22/74 75/23/75 76/24/76 77/25/77 78/26/78 79/27/79 80/28/80 81/29/81 82/30/82 83/31/83 84/32/84
f 85//85 86//86 87//87 88//88
f 89//89 90//90 91//91 92//92
f 93/33/93 94/34/94 95/35/95 96/36/96 97/37/97 98/38/98 99/39/99 100/40/100 101/41/101 102/42/102 103/43/103 104/44/104 105/45/105 106/46/106 107/47/107 108/48/108 109/49/109 110/50/110 111/51/111 112/52/112 113/53/113 114/54/114 115/55/115 116/56/116 117/57/117 118/58/118 119/59/119 120/60/120 121/61/121 122/62/122 123/63/123 124/64/124 125/65/125 126/66/126 127/67/127 128/68/128 129/69/129 130/70/130 131/71/131 132/72/132 133/73/133 134/74/134 135/75/135 136/76/136 137/77/137 138/78/138 139/79/139 140/80/140 141/81/141 142/82/142 143/83/143 144/84/144 145/85/145 146/86/146 147/87/147 148/88/148 149/89/149 150/90/150 151/91/151 152/92/152 153/93/153 154/94/154 155/95/155 156/96/156 157/97/157 158/98/158 159/99/159 160/100/160 161/101/161 162/102/162 163/103/163 164/104/164 165/105/165 166/106/166 167/107/167 168/108/168 169/109/169 170/110/170 171/111/171 172/112/172 173/113/173 174/114/174 175/115/175 176/116/176 177/117/177 178/118/178 179/119/179 180/120/180 181/121/181 182/122/182 183/123/183 184/124/184 185/125/185 186/126/186 187/127/187 188/128/188 141/81/141 140/80/140

# End of File
