# Obj file Generated by Strata Design 3D CX(TM): http://www.strata.com
mtllib Window, Universal Shape.mtl
v 52.269356 -210.481720 254.530991
v 114.409210 -148.341888 212.015854
v -134.150177 -148.341888 212.015854
v 52.269352 -334.761414 254.530991
v 114.409210 -396.901245 212.015854
v -72.010315 -334.761414 254.530991
v -134.150177 -396.901245 212.015854
v -72.010307 -210.481720 254.530991

vt 0.655349 0.655351
vt 0.810697 0.810699
vt 0.189304 0.810699
vt 0.655351 0.344651
vt 0.810699 0.189303
vt 0.344651 0.344649
vt 0.189303 0.189301
vt 0.344649 0.655349

vn 0.203169 0.406337 0.890850
vn 0.406337 0.203169 0.890850
vn -0.203168 0.406337 0.890850
vn 0.406337 -0.203169 0.890850
vn 0.203168 -0.406337 0.890850
vn -0.203168 -0.406337 0.890850
vn -0.406337 -0.203169 0.890850
vn -0.406337 0.203169 0.890850

usemtl Tile, Space White
f 1/1/1 2/2/2 3/3/3
f 4/4/4 5/5/5 2/2/2
f 6/6/6 7/7/7 5/5/5
f 8/8/8 3/3/3 7/7/7
f 3/3/3 8/8/8 1/1/1
f 2/2/2 1/1/1 4/4/4
f 5/5/5 4/4/4 6/6/6
f 7/7/7 6/6/6 8/8/8
v -109.294243 -372.045319 226.415894
v 89.553276 -372.045349 226.415909
v 89.553291 -173.197845 226.415878
v -109.294235 -173.197830 226.415863

vt 0.000007 0.999996
vt 0.999997 0.999996
vt 0.999997 0.000007
vt 0.000003 0.000003

vn -0.000000 0.000000 1.000000
vn -0.000000 0.000000 1.000000
vn -0.000000 0.000000 1.000000
vn -0.000000 0.000000 1.000000

usemtl Window Glow
f 9/9/9 10/10/10 11/11/11
f 11/11/11 12/12/12 9/9/9

# End of File
