# Obj file Generated by Strata Design 3D CX(TM): http://www.strata.com
mtllib Sun Superior.mtl
v 75.083328 -12.513888 0.000000
v 73.882172 -0.313093 0.000000
v 70.322739 11.424832 0.000000
v 64.541748 22.242805 0.000000
v 56.761353 31.725096 0.000000
v 47.280556 39.507309 0.000000
v 36.463692 45.290375 0.000000
v 24.726452 48.852058 0.000000
v 12.519884 50.055481 0.000000
v 0.313093 48.854397 0.000000
v -11.424829 45.294964 0.000000
v -22.242802 39.513977 0.000000
v -31.725096 31.733576 0.000000
v -39.507309 22.252773 0.000000
v -45.290375 11.435920 0.000000
v -48.852058 -0.301328 0.000000
v -50.055481 -12.507895 0.000000
v -48.854397 -24.714680 0.000000
v -45.294964 -36.452610 0.000000
v -39.513969 -47.270584 0.000000
v -31.733580 -56.752869 0.000000
v -22.252789 -64.535080 0.000000
v -11.435924 -70.318146 0.000000
v 0.301324 -73.879837 0.000000
v 12.507891 -75.083260 0.000000
v 24.714689 -73.882172 0.000000
v 36.452618 -70.322739 0.000000
v 47.270569 -64.541756 0.000000
v 56.752865 -56.761360 0.000000
v 64.535080 -47.280560 0.000000
v 70.318153 -36.463692 0.000000
v 73.879837 -24.726444 0.000000

vt 0.998792 0.500000
vt 0.989217 0.597263
vt 0.960842 0.690835
vt 0.914757 0.777074
vt 0.852733 0.852666
vt 0.777154 0.914704
vt 0.690924 0.960806
vt 0.597356 0.989199
vt 0.500048 0.998792
vt 0.402737 0.989217
vt 0.309165 0.960842
vt 0.222926 0.914757
vt 0.147335 0.852733
vt 0.085296 0.777154
vt 0.039195 0.690924
vt 0.010802 0.597356
vt 0.001208 0.500048
vt 0.010783 0.402737
vt 0.039158 0.309165
vt 0.085243 0.222926
vt 0.147267 0.147334
vt 0.222846 0.085296
vt 0.309076 0.039194
vt 0.402644 0.010801
vt 0.499952 0.001208
vt 0.597263 0.010783
vt 0.690835 0.039158
vt 0.777074 0.085243
vt 0.852665 0.147267
vt 0.914704 0.222846
vt 0.960805 0.309076
vt 0.989198 0.402644

vn 0.000000 0.000000 1.000000
vn 0.000000 0.000000 1.000000
vn 0.000000 0.000000 1.000000
vn 0.000000 0.000000 1.000000
vn 0.000000 0.000000 1.000000
vn 0.000000 0.000000 1.000000
vn 0.000000 0.000000 1.000000
vn 0.000000 0.000000 1.000000
vn 0.000000 0.000000 1.000000
vn 0.000000 0.000000 1.000000
vn 0.000000 0.000000 1.000000
vn 0.000000 0.000000 1.000000
vn 0.000000 0.000000 1.000000
vn 0.000000 0.000000 1.000000
vn 0.000000 0.000000 1.000000
vn 0.000000 0.000000 1.000000
vn 0.000000 0.000000 1.000000
vn 0.000000 0.000000 1.000000
vn 0.000000 0.000000 1.000000
vn 0.000000 0.000000 1.000000
vn 0.000000 0.000000 1.000000
vn 0.000000 0.000000 1.000000
vn 0.000000 0.000000 1.000000
vn 0.000000 0.000000 1.000000
vn 0.000000 0.000000 1.000000
vn 0.000000 0.000000 1.000000
vn 0.000000 0.000000 1.000000
vn 0.000000 0.000000 1.000000
vn 0.000000 0.000000 1.000000
vn 0.000000 0.000000 1.000000
vn 0.000000 0.000000 1.000000
vn 0.000000 0.000000 1.000000

usemtl Sun Glow
f 1/1/1 2/2/2 3/3/3 4/4/4 5/5/5 6/6/6 7/7/7 8/8/8 9/9/9 10/10/10 11/11/11 12/12/12 13/13/13 14/14/14 15/15/15 16/16/16 17/17/17 18/18/18 19/19/19 20/20/20 21/21/21 22/22/22 23/23/23 24/24/24 25/25/25 26/26/26 27/27/27 28/28/28 29/29/29 30/30/30 31/31/31 32/32/32

# End of File
